/* XPM */
static char *acd4d856d8ec48978362e20ecd439f52PRHJfkBtChVAX446[] = {
/* columns rows colors chars-per-pixel */
"64 64 133 2 ",
"   c None",
".  c #E131BA",
"X  c #E132BA",
"o  c #E132BB",
"O  c #E233BB",
"+  c #E234BB",
"@  c #E234BC",
"#  c #E235BC",
"$  c #E236BC",
"%  c #E336BC",
"&  c #E337BD",
"*  c #E338BD",
"=  c #E339BD",
"-  c #E339BE",
";  c #E439BE",
":  c #E43ABE",
">  c #E43BBE",
",  c #E43BBF",
"<  c #E43CBF",
"1  c #E53CBF",
"2  c #E43DBF",
"3  c #E53DC0",
"4  c #E53EC0",
"5  c #E53FC0",
"6  c #E540C1",
"7  c #E640C1",
"8  c #E641C1",
"9  c #E641C2",
"0  c #E642C2",
"q  c #E643C2",
"w  c #E643C3",
"e  c #E743C3",
"r  c #E744C3",
"t  c #E745C3",
"y  c #E746C3",
"u  c #E745C4",
"i  c #E746C4",
"p  c #E846C4",
"a  c #E847C4",
"s  c #E848C5",
"d  c #E849C5",
"f  c #E84AC6",
"g  c #E94AC6",
"h  c #E94BC6",
"j  c #E94CC6",
"k  c #E94CC7",
"l  c #EA4DC7",
"z  c #EA4EC7",
"x  c #EA4EC8",
"c  c #EA4FC8",
"v  c #EA50C9",
"b  c #EB50C9",
"n  c #EB51C9",
"m  c #EC54CA",
"M  c #EC55CA",
"N  c #EC54CB",
"B  c #EC55CB",
"V  c #EC56CB",
"C  c #EC57CC",
"Z  c #ED59CD",
"A  c #ED5ACD",
"S  c #EE5BCE",
"D  c #EE5CCE",
"F  c #EE5DCF",
"G  c #EF5DCF",
"H  c #EF5ECF",
"J  c #EF5FCF",
"K  c #EF60D0",
"L  c #F061D0",
"P  c #F062D1",
"I  c #F063D1",
"U  c #F063D2",
"Y  c #F064D1",
"T  c #F165D2",
"R  c #F165D3",
"E  c #F166D3",
"W  c #F167D3",
"Q  c #F267D3",
"!  c #F167D4",
"~  c #F268D4",
"^  c #F269D4",
"/  c #F26AD5",
"(  c #F36BD5",
")  c #F36CD6",
"_  c #F36DD6",
"`  c #F36ED6",
"'  c #F36ED7",
"]  c #F46ED7",
"[  c #F46FD7",
"{  c #F470D7",
"}  c #F470D8",
"|  c #F471D8",
" . c #F571D8",
".. c #F572D8",
"X. c #F572D9",
"o. c #F573D9",
"O. c #F574D9",
"+. c #F575D9",
"@. c #F676D9",
"#. c #F676DA",
"$. c #F677DA",
"%. c #F678DA",
"&. c #F679DA",
"*. c #F679DB",
"=. c #F67ADA",
"-. c #F67ADB",
";. c #F77DDB",
":. c #F77CDC",
">. c #F77DDC",
",. c #F77FDD",
"<. c #F880DD",
"1. c #F881DD",
"2. c #F881DE",
"3. c #F882DE",
"4. c #F883DE",
"5. c #F884DE",
"6. c #F985DF",
"7. c #F986DF",
"8. c #F987E0",
"9. c #F989E0",
"0. c #FA8DE1",
"q. c #FA8FE2",
"w. c #FB90E2",
"e. c #FB90E3",
"r. c #FB91E3",
"t. c #FB92E3",
"y. c #FB93E4",
"u. c #FB94E4",
"i. c #FB95E4",
"p. c #FC95E5",
"a. c #FC97E5",
"s. c #FC97E6",
"d. c #FC98E6",
/* pixels */
"                                                                                                                                ",
"                                                                                                                                ",
"                                                                                                                                ",
"                          o o o o o                                                       o o o o o o                           ",
"                    o o : a v B m l 0 O o o                                         o o % 0 l m m l a : o o                     ",
"                o o v _ o.O.=.>.,.&.o.o.T t o o                                 o o 0 P o.o.o.o.o.o.o.o.( m + o                 ",
"              o h ] =.8.y.s.d.i.7.;.O.o.o.o.! 0 o                             o 4 T o.o.o.o.o.o.o.o.o.o.o.o.] l o               ",
"            @ S O.7.s.d.d.s.0.=.o.o.o.o.o.o.o.{ h o                         o a ] o.o.o.o.o.o.o.o.o.o.o.o.o.o.o.S +             ",
"          o P =.t.d.d.d.s.1.o.o.o.o.o.o.o.o.o.o.o.B o                     o m o.o.o.o.o.o.o.o.o.o.o.o.o.o.o.o.o.o.H o           ",
"        o G O.i.d.d.d.s.1.o.o.o.o.o.o.o.o.o.o.o.o.o.B o                 o B o.o.o.o.o.o.o.o.o.o.o.o.o.o.o.o.o.o.o.o.B o         ",
"      o t o.0.d.d.d.d.8.o.o.o.o.o.o.o.o.o.o.o.o.o.o.o.a o             o a o.o.o.o.o.o.o.o.o.o.o.o.o.o.o.o.o.o.o.o.o.o.4 o       ",
"      + ] 7.d.d.d.d.t.O.o.o.o.o.o.o.o.o.o.o.o.o.o.o.O.] 1 o         o 1 ] o.o.o.o.o.o.o.o.o.o.o.o.o.o.o.o.o.o.o.o.o.o.^ O       ",
"    o z O.s.d.d.s.s.,.o.o.o.o.o.o.o.o.o.o.o.o.o.o.o.o.o.P o         . P o.o.o.o.o.o.o.o.o.o.o.o.o.o.o.o.o.o.o.o.o.o.o.o.h o     ",
"    o ~ 1.d.d.d.s.s.o.o.o.o.o.o.o.o.o.o.o.o.o.o.o.o.o.o.o.a o     o h o.o.o.o.o.o.o.o.o.o.o.o.o.o.o.o.o.o.o.o.o.o.o.o.o.P o     ",
"    1 o.w.d.d.d.d.7.o.o.o.o.o.o.o.o.o.o.o.o.o.o.o.o.o.o.o.] o     O ] o.o.o.o.o.o.o.o.o.o.o.o.o.o.o.o.o.o.o.o.o.o.o.o.o.o.%     ",
"  o B O.d.d.d.d.d.;.o.o.o.o.o.o.o.o.o.o.o.o.o.o.o.o.o.o.o.o.z o o h o.o.o.o.o.o.o.o.o.o.o.o.o.o.o.o.o.o.o.o.o.o.o.o.o.o.o.h o   ",
"  o T >.d.d.d.d.d.O.O.o.o.o.o.o.o.o.o.o.o.o.o.o.o.o.o.o.o.o.! o o T o.o.o.o.o.o.o.o.o.o.o.o.o.o.o.o.o.o.o.o.o.o.o.o.o.o.o.H o   ",
"  o ~ 1.d.d.d.d.e.o.O.o.o.o.o.o.o.o.o.o.o.o.o.o.o.o.o.o.o.o.o.h t o.o.o.o.o.o.o.o.o.o.o.o.o.o.o.o.o.o.o.o.o.o.o.o.o.o.o.o.T o   ",
"  + ] 7.d.d.d.d.e.o.o.o.o.o.o.o.o.o.o.o.o.o.o.o.o.o.o.o.o.o.o.P H o.o.o.o.o.o.o.o.o.o.o.o.o.o.o.o.o.o.o.o.o.o.o.o.o.o.o.o.] o   ",
"  : o.7.d.d.d.d.0.o.o.o.o.o.o.o.o.o.o.o.o.o.o.o.o.o.o.o.o.o.o.o.{ o.o.o.o.o.o.o.o.o.o.o.o.o.o.o.o.o.o.o.o.o.o.o.o.o.o.o.o.] o   ",
"  = o.8.d.d.d.d.y.o.o.o.o.o.o.o.o.o.o.o.o.o.o.o.o.o.o.o.o.o.o.o.O.o.o.o.o.o.o.o.o.o.o.o.o.o.o.o.o.o.o.o.o.o.o.o.o.o.o.o.o.] o   ",
"  @ o.1.d.d.d.d.i.O.o.o.o.o.o.o.o.o.o.o.o.o.o.o.o.o.o.o.o.o.o.o.o.o.o.o.o.o.o.o.o.o.o.o.o.o.o.o.o.o.o.o.o.o.o.o.o.o.o.o.o.] o   ",
"  o ~ -.3.8.1.7.1.O.o.o.o.o.o.o.o.o.o.o.o.o.o.o.o.o.o.o.o.o.o.o.o.o.o.o.o.o.o.o.o.o.o.o.o.o.o.o.o.o.o.o.o.o.o.o.o.o.o.o.o.~ o   ",
"  o ! -.i.d.d.i.i.=.o.o.o.o.o.o.o.o.o.o.o.o.o.o.o.o.o.o.o.o.o.o.o.o.o.o.o.o.o.o.o.o.o.o.o.o.o.o.o.o.o.o.o.o.o.o.o.o.o.o.o.P o   ",
"  o S o.>.>.3.>.3.O.O.o.o.o.o.o.o.o.o.o.o.o.o.o.o.o.o.o.o.o.o.o.o.o.o.o.o.o.o.o.o.o.o.o.o.o.o.o.o.o.o.o.o.o.o.o.o.o.o.o.o.B o   ",
"    z o.o.o.o.o.o.o.o.o.o.o.o.o.o.o.o.o.o.o.o.o.o.o.o.o.o.o.o.o.o.o.o.o.o.o.o.o.o.o.o.o.o.o.o.o.o.o.o.o.o.o.o.o.o.o.o.o.o.t o   ",
"    1 o.o.o.o.o.o.o.o.o.o.o.o.o.o.o.o.o.o.o.o.o.o.o.o.o.o.o.o.o.o.o.o.o.o.o.o.o.o.o.o.o.o.o.o.o.o.o.o.o.o.o.o.o.o.o.o.o.o.+     ",
"    o ^ o.o.o.o.o.o.o.o.o.o.o.o.o.o.o.o.o.o.o.o.o.o.o.o.o.o.o.o.o.o.o.o.o.o.o.o.o.o.o.o.o.o.o.o.o.o.o.o.o.o.o.o.o.o.o.o.T o     ",
"    o S o.o.o.o.o.o.o.o.o.o.o.o.o.o.o.o.o.o.o.o.o.o.o.o.o.o.o.o.o.o.o.o.o.o.o.o.o.o.o.o.o.o.o.o.o.o.o.o.o.o.o.o.o.o.o.o.m o     ",
"      y o.o.o.o.o.o.o.o.o.o.o.o.o.o.o.o.o.o.o.o.o.o.o.o.o.o.o.o.o.o.o.o.o.o.o.o.o.o.o.o.o.o.o.o.o.o.o.o.o.o.o.o.o.o.o.o.%       ",
"      o T o.o.o.o.o.o.o.o.o.o.o.o.o.o.o.o.o.o.o.o.o.o.o.o.o.o.o.o.o.o.o.o.o.o.o.o.o.o.o.o.o.o.o.o.o.o.o.o.o.o.o.o.o.o.H o       ",
"      o y o.o.o.o.o.o.o.o.o.o.o.o.o.o.o.o.o.o.o.o.o.o.o.o.o.o.o.o.o.o.o.o.o.o.o.o.o.o.o.o.o.o.o.o.o.o.o.o.o.o.o.o.o.o.5 o       ",
"        o ~ o.o.o.o.o.o.o.o.o.o.o.o.o.o.o.o.o.o.o.o.o.o.o.o.o.o.o.o.o.o.o.o.o.o.o.o.o.o.o.o.o.o.o.o.o.o.o.o.o.o.o.o.Q o         ",
"        o x o.o.o.o.o.o.o.o.o.o.o.o.o.o.o.o.o.o.o.o.o.o.o.o.o.o.o.o.o.o.o.o.o.o.o.o.o.o.o.o.o.o.o.o.o.o.o.o.o.o.o.o.t o         ",
"          o T O.o.o.o.o.o.o.o.o.o.o.o.o.o.o.o.o.o.o.o.o.o.o.o.o.o.o.o.o.o.o.o.o.o.o.o.o.o.o.o.o.o.o.o.o.o.o.o.o.o.P o           ",
"          o t o.o.o.o.o.o.o.o.o.o.o.o.o.o.o.o.o.o.o.o.o.o.o.o.o.o.o.o.o.o.o.o.o.o.o.o.o.o.o.o.o.o.o.o.o.o.o.o.o.{ 0 o           ",
"            o T o.o.o.o.o.o.o.o.o.o.o.o.o.o.o.o.o.o.o.o.o.o.o.o.o.o.o.o.o.o.o.o.o.o.o.o.o.o.o.o.o.o.o.o.o.o.o.o.H o             ",
"              : ] O.o.o.o.o.o.o.o.o.o.o.o.o.o.o.o.o.o.o.o.o.o.o.o.o.o.o.o.o.o.o.o.o.o.o.o.o.o.o.o.o.o.o.o.o.o.] +               ",
"              o z o.o.o.o.o.o.o.o.o.o.o.o.o.o.o.o.o.o.o.o.o.o.o.o.o.o.o.o.o.o.o.o.o.o.o.o.o.o.o.o.o.o.o.o.o.o.t o               ",
"                o P o.o.o.o.o.o.o.o.o.o.o.o.o.o.o.o.o.o.o.o.o.o.o.o.o.o.o.o.o.o.o.o.o.o.o.o.o.o.o.o.o.o.o.o.S o                 ",
"                  = ] o.o.o.o.o.o.o.o.o.o.o.o.o.o.o.o.o.o.o.o.o.o.o.o.o.o.o.o.o.o.o.o.o.o.o.o.o.o.o.o.o.o.~ +                   ",
"                  o h o.o.o.o.o.o.o.o.o.o.o.o.o.o.o.o.o.o.o.o.o.o.o.o.o.o.o.o.o.o.o.o.o.o.o.o.o.o.o.o.o.{ 0 o                   ",
"                    . m o.o.o.o.o.o.o.o.o.o.o.o.o.o.o.o.o.o.o.o.o.o.o.o.o.o.o.o.o.o.o.o.o.o.o.o.o.o.o.o.h o                     ",
"                      o G o.o.o.o.o.o.o.o.o.o.o.o.o.o.o.o.o.o.o.o.o.o.o.o.o.o.o.o.o.o.o.o.o.o.o.o.o.{ B o                       ",
"                        = ! o.o.o.o.o.o.o.o.o.o.o.o.o.o.o.o.o.o.o.o.o.o.o.o.o.o.o.o.o.o.o.o.o.o.o.o.H o                         ",
"                          = _ o.o.o.o.o.o.o.o.o.o.o.o.o.o.o.o.o.o.o.o.o.o.o.o.o.o.o.o.o.o.o.o.o.o.T +                           ",
"                          o 1 _ o.o.o.o.o.o.o.o.o.o.o.o.o.o.o.o.o.o.o.o.o.o.o.o.o.o.o.o.o.o.o.O.( + o                           ",
"                            o f o.o.o.o.o.o.o.o.o.o.o.o.o.o.o.o.o.o.o.o.o.o.o.o.o.o.o.o.o.o.o.] 0 o                             ",
"                              o 8 o.o.o.o.o.o.o.o.o.o.o.o.o.o.o.o.o.o.o.o.o.o.o.o.o.o.o.o.o.] 1 o                               ",
"                                o 8 _ o.o.o.o.o.o.o.o.o.o.o.o.o.o.o.o.o.o.o.o.o.o.o.o.o.o.( 0 o                                 ",
"                                  o 8 o.o.o.o.o.o.o.o.o.o.o.o.o.o.o.o.o.o.o.o.o.o.o.O.O.] 1 o                                   ",
"                                    o 1 ~ o.o.o.o.o.o.o.o.o.o.o.o.o.o.o.o.o.o.o.o.o.O.~ : o                                     ",
"                                      o 4 ~ o.o.o.o.o.o.o.o.o.o.o.o.o.o.o.o.o.o.o.o.T 4 o                                       ",
"                                        o : ^ o.o.o.o.o.o.o.o.o.o.o.o.o.o.o.o.o.o.P O o                                         ",
"                                            + S o.o.o.o.o.o.o.o.o.o.o.o.o.o.o.o.B o                                             ",
"                                              o C o.o.o.o.o.o.o.o.o.o.o.o.o.] m o                                               ",
"                                                o h ] O.o.o.o.o.o.o.o.o.o.~ i o                                                 ",
"                                                  o 8 ~ o.o.o.o.o.o.o.{ T 1 o                                                   ",
"                                                      @ S o.o.o.o.o.o.S o                                                       ",
"                                                        o t ] o.o.] h o                                                         ",
"                                                          o : H T 4 o                                                           ",
"                                                              o + o                                                             ",
"                                                                                                                                ",
"                                                                                                                                "
};
