/* XPM */
static char *a00dbee3d9ed4483d966b7e2a9b59ffbX0Jkpkk5UJ2zjDl9[] = {
/* columns rows colors chars-per-pixel */
"64 64 55 1 ",
"  c #212202",
". c #202101",
"X c #1F2000",
"o c #222303",
"O c #262707",
"+ c #282909",
"@ c #232404",
"# c #252604",
"$ c #262705",
"% c #252606",
"& c #232402",
"* c #202100",
"= c #222301",
"- c #1E1F00",
"; c #1D1E00",
": c #1C1D00",
"> c #242505",
", c #212200",
"< c #272808",
"1 c #272806",
"2 c #282907",
"3 c #292A08",
"4 c #1A1B00",
"5 c #242503",
"6 c #292A0A",
"7 c #2A2B0B",
"8 c #2A2B09",
"9 c #2B2C0A",
"0 c #2C2D0D",
"q c #2C2D0B",
"w c #2D2E0C",
"e c #2B2C0C",
"r c #2D2E0E",
"t c #2E2F0D",
"y c #2E2F0F",
"u c #2F3010",
"i c #2F300E",
"p c #30310F",
"a c #303111",
"s c #292B06",
"d c #2B2D08",
"f c #2C2E09",
"g c #2A2C07",
"h c #2D2F0A",
"j c #2E300B",
"k c #272904",
"l c #282A05",
"z c #232500",
"x c #222400",
"c c #252702",
"v c #202200",
"b c #1E2000",
"n c #1F2100",
"m c #313210",
"M c #323311",
/* pixels */
"  .XoO+O@########$$$$$$$$OOOOOOOO%%%OO%o.&*X=$$$$$$$$$$$$$$$$$$$",
"--;:X@>o.,,,,,,,,,,,,,,,,        ... oo.-X::X=&=&,,,,,,,,*******",
"O<<<<<<<<1111111123233*4X >%@o>%%>@@@@@@@55555555&&&&&&&&=55=-;X",
"6777777778888888889388=;=%<+O%<++<<<<<<OO11111111$$$$$$$$$115*X,",
"000000000qqqqqqqqqw89q5*$6e076er00000eeee99999999999999999q9$=*&",
"0eeeeeeee99999999wt99q#=3eyy00yuuyyyyyrrrwwwwwwwwttttttttiiw2&,5",
"000000000qqqqqqqqwt99q#=30yur0yuuyyyrrrrrttttttttttttttttiiw2&=#",
"rrrrrrrrrwwwwwwwwwt9qq#,17rreeryy00000eeeqqqqqqqqwwwwwwwwwwq2&=#",
"yyyyyyyyyttttttttwtqww#*$6e0760rreeeeeee799999999999999998qq25&$",
"ryyyyyyyyttttttttwtwtt#*#+ee66e00eeeeee7788888888888888882893#5$",
"yyrwwttwwtttwwwwwwtqww#,1q989qwtt9qqqwwqqqqqqqqqqqqqqqqqqw983$=5",
"rrrqqwwwqwwwwwqqqwtqww#,1wq9qwttiqqwwwwwwwwwwwwwwwwwwwwwwtq981&#",
"000qqqqqqwwqqqqqqqw9qw#,1wwwwwtiiwwwwwwwwtttttttttttttttttw98$5$",
"e00wwqqqwwwwqqqqqqw9qw#,1qwwwwwttttwwwwwwwwwwwwwwqqqqqqqqwq925&#",
"70rttqqwtttwwwwww9q8qw#,19qwwq9qttwqqqqqq9999999999999999993#==5",
"70yitqqwittttwwww9q89q#,18qttq99wtwq999qq88888888888888888935*,5",
"7eritq9qiwwwwwwqq8989q#,18wiiq9qwitwq99qw99999999qqqqqqqq9w95,&$",
"77rtw98qtwwqqqqqq8939q#,19tppw9qtpitqqqwwwwwwwwwwwwwwwwwwwiw$=#2",
"rerttq9qwqqqwwqqqq99q3#&58qtq828qwq99qqq99889wtwwiiiiiiiiiiw3$$2",
"670wq83898899998898993#5#8qwq838qtwqqwtwq98389qq9333333333315,,5",
"%<+21$#$$$$1111$$$#$1#=,&$232$#12832238321$#$111$========&=,X--*",
"o@@&==,====&&&&==***=*-;*=&5&=,=&&===&5&=**X*=&&=,,,,,,,,==,***=",
"o@o,,,=====&&&&==,*,=,XX,&&5&===&&==&55=,X-X*&###########1$$$$12",
"<O>&&#$11111221111$121#$23322222232338831&=&#289988888888q999www",
"0+<#$29999qqqqqq9q9qwq89wwqqqqqq9qqqtitq9$$$29wttqqqqqqqqwqqwiit",
"a6<$18qwwwwttttwwtwwtq89twwqqwwq9999wtw98$$$28qqqqqqqqqqqwqqwiiw",
"q2&,#sddfwwwwwqqq9999qqqqqqqqqqqqq98qww922&=$qtwqqqqqqqwwwwqq998",
"925=#gfffwwwwwqqq9999qqqqqqqqqwwwwq9qtt9335=1qtwqqqqqqqwwwwqq998",
"935=$gffhwwwwwqqqqqqqqqqqqqwwwtttwq9wttq385=1qtq9qqqqqqwwwwqqq99",
"83#&$dhhhwwwwwqqqqqqqqqqqqqwwttiitqqwiiq88#&1qwq9qqqqqqwwwwqqqq9",
"83#&$dhhhwwwwwqqqwwwqqqqqqqwwttiitqqwiiq88#&1qwq9qqqqqqwwwwqqqqq",
"935=$gffhwwwwwqqqtwwwqqq9qqwwwtttwq9wttq385=1qtq9qqqqqqwwqqwwwww",
"925=#gfffwwwwwqqqttwwqqq9qqqqqwwwwq9qtt9335=1qtwqqqqqqqwwqqwwwww",
"q2&,#sddfwwwwwqqqtttwwqq9qqqqqqqqq98qww922&=$qtwqqqqqqqwwqqwwwww",
"88#&#sgfjwwwwwwwtqqqqq99889qqqq98q99qttq39=X$wqqwqqqqqqqqwq9qwtw",
"q8#=#sdfjtttiiiiiwttttwwqwwtttwqqq99qtt939=X$qq9wtttwwwwwtwqwipi",
"985,#gfhhtwwwwwwwqqqwwqq9qqwwqq983339wq3$8&*#9qqwwwqqq999q99qwtw",
"98#,#dhhfwwwwwqqq9qqwwqqqqqqq99888339ww813&,#8qwtwqqq99989999qqq",
"w8#=#gfddttttttttttttttwwwwqqqqqqq98qttq3$&=#8wttttwwwwqqwwwwwww",
"315=#kkkl3888889999998332322222332$#$221#5&&#3998333333333883211",
"&5=,&zxzc===&55#####5&=,,=====&5#&,--*=,*&&5#12$5,,,==&&&&55&*XX",
",,*,=vbnzXX**,=&&&&&=,*--,***,=555*;:-*,,=&5#$#=---XX*,,=,==*-::",
"&55555555==&&55###55#5,=###&=#231$$####$$##$11$##555###$$$###=X*",
"#$$$$$$$$55##$$$1$##$5=&$221#19q83333333311222211$111122221115,=",
"133333333112233332111$&51qq939ttqqqwttwqq88833888888889999883$&#",
"89999999999999qqq833315#1wtw9qtiwqwippiwqqq9889qqqqqqqqqqw9981#$",
"wqqqqqqqqwwwwwwwtq88815#1qttq9wwq9qtiitq9wq9999qwwwqqqqqqw99815$",
"twwwwwwwwttttttttq883155$9wt9899889qqqq98qq9999qqwqqqqq99q982#&#",
"itttttttttttttwwwq833$&&#9tiq8898999999999qqqqqq9qqqq9999q8315=#",
"ittttttttttwwwwwwq832$==5qipw9998999889999qwwwwq9wqqq9999q8215=#",
"wwwwwwwqqtwqqwtwq89322=*2wttwq8889qwttwwqq99qqqwwwwwwwwww9qq2&&1",
"9qqqqqqqqwq9qwwqq89222,*2ippitqqwqwwwwwqqqqqqqqwwwwwwwwwwqwq1&=$",
"9999qqqwwtwqqwtwq99333=*3tiitq9qqttwqqqqqwqqqqqqqqqqqqqqqqq91==#",
"q99qqwwttitwwtitwqw888&=8wttw999qitwq99qqqqqqq99899999999993$&=$",
"98999qwwwtwqqwtwq9q833&,3iiitwwtiitwq99qqqqqqq98888888888832#&51",
"888889999q999qqq989222,*2tttq99wtttwqqqqqqqwwwwq999999999982#5#2",
"99qqqqqqqwq9qqwq99q333=,39q98339qqwwwwwqqwwippitwwwwwwwwwwq3$5#1",
"tttttttttitwwtitwwt9995&9wwq989qt9qwttwwqtipmMmppttttttttpt8155$",
"rryyyrrryrrrrr0eee7ee6OO+r0e77e0r0000eeee7eryuuuuyyyyyyyyuye<>%+",
"OOOOOOOO<<<<<<O%%%>%O%oo>6+<OO<+6+++++++<O<+77eee00000000r07<%%<",
".......       ..X.X.o XX >@o  o@>>>>>@@oooo@>%%%%>>>>>>>>>>@o.. ",
"  .XX.oooooooo ..  o@o..@oo.XX.oo ooo .X-..  oo@@........-XXXX--",
"<%@oo>O<<+++++<OO+<+6+%%+<O%>>%O<%%%%>o .   o@@>%>>>>>>>>>>%OOOO",
"0<%@><777ryyyr00errrur77rr0e77e0r7eee7+%>@@@>%<+666666666eee0yyr"
};
