/* XPM */
static char *ffba104cd27e47f8be679c5edcfe4635kKl8am2aNj787ATq[] = {
/* columns rows colors chars-per-pixel */
"64 64 193 2 ",
"   c None",
".  c #040405",
"X  c #090505",
"o  c #060806",
"O  c #05050A",
"+  c #09050A",
"@  c #06090B",
"#  c #090A0B",
"$  c #060B12",
"%  c #0B0D12",
"&  c #060A15",
"*  c #0A1214",
"=  c #04151C",
"-  c #09131C",
";  c #0F1B1A",
":  c #071116",
">  c #111114",
",  c #16181B",
"<  c #071722",
"1  c #061C25",
"2  c #0C1B23",
"3  c #061E2B",
"4  c #081F2F",
"5  c #091725",
"6  c #161E24",
"7  c #071D32",
"8  c #0A212F",
"9  c #142423",
"0  c #1A252C",
"q  c #172B2F",
"w  c #11242D",
"e  c #042433",
"r  c #092331",
"t  c #062935",
"y  c #082837",
"u  c #062B3A",
"i  c #0A2C3A",
"p  c #07303F",
"a  c #19343D",
"s  c #21343F",
"d  c #3F3F3F",
"f  c #033344",
"g  c #0A3243",
"h  c #09354C",
"j  c #03394B",
"k  c #0A394D",
"l  c #02354B",
"z  c #053D54",
"x  c #0D3C53",
"c  c #273F4A",
"v  c #243941",
"b  c #054254",
"n  c #074659",
"m  c #09495B",
"M  c #2B434C",
"N  c #2E4E57",
"B  c #2C5C5D",
"V  c #36525F",
"C  c #054C64",
"Z  c #0A4C67",
"A  c #05556A",
"S  c #0A536E",
"D  c #075568",
"F  c #065571",
"G  c #0A5774",
"H  c #055C7A",
"J  c #025E77",
"K  c #395C68",
"L  c #375665",
"P  c #295E70",
"I  c #08637E",
"U  c #3A797D",
"Y  c #436E7B",
"T  c #085F89",
"R  c #085E9E",
"E  c #056485",
"W  c #096D8D",
"Q  c #076588",
"!  c #03788F",
"~  c #086E90",
"^  c #036E98",
"/  c #037394",
"(  c #057B9D",
")  c #097A9D",
"_  c #167798",
"`  c #3C7B81",
"'  c #047AA2",
"]  c #0A7BA1",
"[  c #446B85",
"{  c #477788",
"}  c #08809E",
"|  c #0681A3",
" . c #0585AB",
".. c #0884AF",
"X. c #0B81A2",
"o. c #1E8AAC",
"O. c #048BB2",
"+. c #088CB4",
"@. c #058DB8",
"#. c #0593BC",
"$. c #0992B7",
"%. c #428F8D",
"&. c #4E8897",
"*. c #439697",
"=. c #5B95A9",
"-. c #4CA9A9",
";. c #60A6BC",
":. c #098DC2",
">. c #0393C3",
",. c #0A94C4",
"<. c #059BC3",
"1. c #039CCB",
"2. c #039DD3",
"3. c #089ED1",
"4. c #05A2CD",
"5. c #03A4D3",
"6. c #08A3D7",
"7. c #05AAD5",
"8. c #02A5DB",
"9. c #03ABDC",
"0. c #04B1DF",
"q. c #05A5E0",
"w. c #02ABE2",
"e. c #02AFEA",
"r. c #03B4E4",
"t. c #03B2ED",
"y. c #06BAEC",
"u. c #08BBEF",
"i. c #0ABAE7",
"p. c #02B4F2",
"a. c #04BDF4",
"s. c #0ABEF6",
"d. c #02BFFF",
"f. c #09BDFB",
"g. c #0BB5F0",
"h. c #6BB5C9",
"j. c #70BBD1",
"k. c #04C2F5",
"l. c #0AC2F6",
"z. c #03C1FD",
"x. c #09C2FB",
"c. c #13C3FB",
"v. c #1BC7F8",
"b. c #34C1E8",
"n. c #24C9FA",
"m. c #2CCBFB",
"M. c #21C6FA",
"N. c #33CBFB",
"B. c #3ECCFB",
"V. c #5BC3C4",
"C. c #5ECCCB",
"Z. c #5ECFD0",
"A. c #6FC0D3",
"S. c #74C1DA",
"D. c #77CADB",
"F. c #62D6D7",
"G. c #67E5DF",
"H. c #44CBFA",
"J. c #4ECCFB",
"K. c #4AD1FC",
"L. c #48D1FA",
"P. c #54D4F9",
"I. c #5ED5FC",
"U. c #78C6E0",
"Y. c #7CCCE5",
"T. c #7DD3EA",
"R. c #64D6FB",
"E. c #6DD6FA",
"W. c #6BDCFA",
"Q. c #73D6F8",
"!. c #75DCFB",
"~. c #7CDBFB",
"^. c #7ADAF5",
"/. c #6CEDEB",
"(. c #67E3E4",
"). c #73ECEC",
"_. c #6BEFF3",
"`. c #6EF1F3",
"'. c #73F5F6",
"]. c #70F8F7",
"[. c #73FCFC",
"{. c #78F9F9",
"}. c #83DDFE",
"|. c #87DDFF",
" X c #86DDFF",
".X c #85DDFE",
"XX c #86DDFE",
"oX c #88DDFE",
"OX c #89DDFE",
"+X c #85DAF5",
"@X c #84E1FE",
"#X c #89E0FE",
"$X c #83E2F7",
/* pixels */
"                                              # + . . O 5 o o .                                                                 ",
"                                          > . . % O.k.a.z.z.y.g . >                                                             ",
"                                        . . #.x.z.z.z.d.d.d.d.z.] . .                                                           ",
"                                      X i z.d.d.d.d.d.d.d.d.d.d.z.d. ..                                                         ",
"                                    . = d.z.d.z.d.d.z.z.z.d.d.d.d.z.z.* +                                                       ",
"                                  # . a.d.z.v.E.I.z.z.l.1.d.z.f.z.z.z.a.O ,                                                     ",
"                                  . 7 f.d.A }.OX}.OX~.* Y.OXOXOX}.OXOXXXQ.o                                                     ",
"                                  . D.XX}.` OXOXOX}.T.X +X}.}.OXOX}.OX}.R.#                                                     ",
"                                . . +XOXOXS.=.}.}.}.K x n.~.#XOXOX}.!.l.z.o                                                     ",
"                                o _ }.}.}.~.O i.z.f.e u.z.z.z.z.1.( C & O + . o #                                               ",
"                                  +.1.&.{ W o = x.d.J # #.X O o & j { h.j.U.j.=.N . + O                                         ",
"                              # - n ( 5.3.E o X 4.d.7.. o k 7.z.z.z.}.}.XXXXOX}.}.#Xo.O .                                       ",
"                        % : w.z.d.d.d.d.d.d.z...O | ! @ z.z.d.d.z.z.n.OXOX}.OXOXN.z.d.z.<.. .                                   ",
"                      . a f.d.d.d.d.d.d.d.d.d.z.( X . 4.d.d.d.d.d.d.x.}.OXOXOXR.d.z.d.d.d.k.: .                                 ",
"                    X h..XJ.d.d.d.d.d.d.z.d.z.z.a.. . @.d.d.d.d.d.d.d.#XOXOXOXE.d.d.d.d.d.d.z.O . d                             ",
"                  . OX}.OX}.}.I.d.d.d.d.d.d.z.z.1 2 f O z.d.d.d.z.z.x.}.}.OX}.OXz.z.d.d.d.d.d.~.V o                             ",
"                . 4 J.OX.XOXOX}.x.d.d.d.d.d.z.k o z.<.. z.d.z.c.R.}.}.}.OXOXOXOXM.d.d.d.d.d.f.OX+XM .                           ",
"                .  .d.Q.OX}.OXOX}.f.z.z.d.z.k . L K.l.. ( f.H.XXOXOXOXOX}.OX}..Xx.d.d.d.d.d.d.}.}.OX. o                         ",
"              . A d.d.d.c.}.OX}.}.OXx.z.z.= . T.}.OXP.t.. ( }.}.}.OXOXOXOXOXOXc.d.d.d.d.d.d.m.}.OXOX+X+ .                       ",
"              . r.d.d.d.z.M..XOXOXOXR.y.# X +X}.OXOX}.f.o . { OXOXOX}.OXOX}.M.d.d.d.d.d.d.m.OX}.OX}.OXA..                       ",
"              . J d.d.d.d.d.z.m..X.Xb.O * D.}.OXOXOX}.H.r.. . 6 }.OXXXXX}.m.d.d.d.d.d.d.m.OX}.OX}.OX}.I.C .                     ",
"                . . . . . O + @ % Y ^.OXOXOX}.OXOX}.OX~.z.f.I o . - 7.f.z.d.d.d.d.z.d.z.@X+X}.OXOX}.E.d.z.O .                   ",
"                    . @ b / 6.c.#XOX}.OXOXOX}.OX}.OXXXE.z.d.d.d.+ o . t 1.a.a.a.a.d.y.C $ o $ 0 c K <.a.a.5.+                   ",
"                    O >.z.d.d.d.#X}.OX}.#X=.M c [ +X}.v.d.d.d.d.f.r.b . O . . . . . . o . . . + + O . . . <.m %                 ",
"                    = f.d.d.d.d.d.R.~.X %.[.[.[.[.9 o a.d.d.d.d.f.z.d.z.z.f.% V.[.[.C.* k.z.d.d.d.d.O.o   # . .                 ",
"                  o ' z.d.d.d.d.z.k.u V.[.[.[.[.[.[.; 2 d.d.d.d.d.d.d.d.z.| ].[.[.[.[.].< z.d.d.d.d.r.o #     .                 ",
"                  o a.d.d.d.d.d.z.a.O [.[.[.[.[.[.[.).. z.d.d.d.d.d.d.d.z.O [.[.[.[.[.[.; 7.d.d.d.d.a.o X                       ",
"                  o x.d.d.d.d.d.z.C q [.[.[.o o [.[.[.a z.d.z.d.d.d.d.z.J B [.F.. [.[.[.).* c.d.d.d.z.o o                       ",
"                  o z.z.z.d.d.d.z.f U [.[.[.9 U [.[.[.-.z.z.d.d.d.d.d.d.e *.[.V.O [.[.[.[.o ~.z.d.d.z.X #                       ",
"                  o z.d.d.d.d.d.z.z -.[.[.[.[.].[.[.[.(.k.d.d.d.d.d.d.z.u *.[.{._./._.'.{.6 T.z.d.d.k.. o                       ",
"                  + z.d.d.d.d.d.z.} -.F.V.Z.G././.'.'.{.a.d.d.d.d.d.d.z.] 8 z k l v v w : @ ;.z.d.d.z.o .                       ",
"                  o x.d.d.d.d.d.d.z.1.x.l.s.z.z.z.i.5. .w.d.d.d.d.d.d.d.z.z.z.z.d.f.N.~.~.B.z.d.d.d.r.o o                       ",
"                  o y.d.d.d.d.d.d.d.d.z.d.d.d.d.d.d.z.d.d.d.d.d.d.d.d.d.d.d.d.d.d.d.d.z.d.d.d.d.d.d.#.o                         ",
"                     .z.d.d.d.d.d.d.d.d.d.d.d.d.d.d.d.d.d.d.d.d.d.d.d.d.d.d.d.d.d.d.d.d.d.d.d.d.d.d.C O                         ",
"                    @ f.d.d.d.d.d.d.d.d.d.d.d.d.d.d.d.d.d.d.d.d.d.d.d.d.d.d.d.d.d.d.d.d.d.d.d.d.d.d.o o                         ",
"                    o 0.z.d.d.d.d.d.d.d.d.d.d.d.d.d.d.d.d.d.d.d.d.z.d.d.d.d.d.d.d.d.d.d.d.d.d.d.d.d.o +                         ",
"                    O - z.z.d.z.d.d.d.d.d.d.d.d.d.d.d.d.d.d.d.d.d.d.d.d.d.d.a.D 7.z.d.d.d.d.d.d.d.a.o                           ",
"                      o r d.d.d.d.d.d.d.d.d.d.d.d.d.d.d.d.d.d.d.d.d.d.d.d.z.O 4.d.d.d.d.d.d.d.d.f.o                             ",
"                      # + f.d.z.d.d.d.d.z.d.d.d.d.d.d.d.d.d.d.d.d.d.z.z.1.& 9.z.d.d.d.d.d.d.d.z.n O                             ",
"                        o r d.f.d.d.d.d.d.d.d.z.H.d.d.d.d.d.d.d.d.d.a.: o >.d.d.d.d.d.d.d.d.d.4.O +                             ",
"                          o # l.d.d.d.d.d.d.z.W.}.J.z.O t Z k % o O z f.z.d.d.d.d.d.d.d.d.z.a.+ #                               ",
"                            X # f.d.d.d.d.d.z.z.K.d.f.n 1 f F <.d.a.z.z.z.d.z.d.d.d.d.d.d.f.# o                                 ",
"                            o + Q z.d.d.d.d.d.d.z.d.d.d.z.d.d.d.c.~.OXOX!.x.d.d.d.d.d.d.y.# o                                   ",
"                            . G o o +.z.d.d.d.d.d.d.d.d.d.d.d.f.}.}.OXOXOX}.d.d.d.z.f.H O                                       ",
"                            o @.g.@ @ +.d.d.d.d.d.d.d.d.d.d.d.d.OXOXOXOX}.#Xd.d.d.9.$ o                                         ",
"                            o z.z.z.S o - r.d.d.d.d.d.d.d.d.d.z.OX}.}.}.OXOXz.z.^ O >                                           ",
"                          # e z.z.d.z.l.n o O i 3.f.d.z.z.d.d.d.P.@X}.+XT.L # + %                                               ",
"                          X @.d.d.d.f.E O ,   @ o o 5 F #.4.4.<.] P 0 X O %                                                     ",
"                          o f.z.f.z.~ +           = . . + O $ + O O o g >.f.O                                                   ",
"                          b d.+.% #             X z.d.z.z.z.z.x.z.d.d.d.z.a.q.+                                                 ",
"                          h o o               % W d.d.d.d.d.d.d.z.z.z.d.d.d.e.F                                                 ",
"                          O                   o z.d.d.d.d.d.d.p.p.p.t.p.t.5.t.q.*                                               ",
"                                            % w.t.8.. z d.t.t.t.t.p.t.p.e.3 2.t.8.                                              ",
"                                            : e.t.C   E p.t.t.t.t.t.t.t.w.e % e.t.S                                             ",
"                                            ,.e.t.o   / t.t.t.t.e.t.t.t.w.u   z p.w.:                                           ",
"                                            w.e.)      .e.e.e.e.e.e.e.e.w.z     3 p./                                           ",
"                                            ^ >.%     ' w.w.w.e.w.w.e.w.8.C       *                                             ",
"                                                      / w.w.w.w.w.w.w.w.8.F                                                     ",
"                                                      E 9.w.q.w./ 7.w.w.8.E                                                     ",
"                                                      H 8.8.q.2.  H 8.8.2.Q                                                     ",
"                                                      C 8.8.2.>.  e 8.8.2.E                                                     ",
"                                                      j 2.2.1.]   . q.2.2.Q                                                     ",
"                                                      t 1.1.>.Z     3.1.1.E                                                     ",
"                                                      7 #.,.+.3     R :.:.T                                                     "
};
