/* XPM */
static char *d4e50a9926564dabcd8a123527b430d6VLkFtFQH1Pqg5R6b[] = {
/* columns rows colors chars-per-pixel */
"64 64 225 2 ",
"   c None",
".  c #040200",
"X  c #0C0101",
"o  c #0A0608",
"O  c #140202",
"+  c #1C0303",
"@  c #1F050A",
"#  c #1C0809",
"$  c #1A0806",
"%  c #180D12",
"&  c #240302",
"*  c #2C0302",
"=  c #220A05",
"-  c #240609",
";  c #240A0B",
":  c #2B0B0D",
">  c #2E0905",
",  c #330202",
"<  c #3E0404",
"1  c #36080B",
"2  c #330E11",
"3  c #271818",
"4  c #311312",
"5  c #37151A",
"6  c #28110B",
"7  c #392120",
"8  c #440403",
"9  c #4A0504",
"0  c #460905",
"q  c #5D0C03",
"w  c #580907",
"e  c #481508",
"r  c #571605",
"t  c #410E11",
"y  c #471D1B",
"u  c #53161B",
"i  c #640404",
"p  c #690D04",
"a  c #660F09",
"s  c #680906",
"d  c #7B0808",
"f  c #6A1303",
"g  c #651307",
"h  c #7C1508",
"j  c #7E1913",
"k  c #4F2004",
"l  c #432410",
"z  c #5A3508",
"x  c #7D201A",
"c  c #78330E",
"v  c #421D26",
"b  c #561822",
"n  c #641E2A",
"m  c #4B2B27",
"M  c #552331",
"N  c #593B3E",
"B  c #503035",
"V  c #514F08",
"C  c #5B5309",
"Z  c #6A500B",
"A  c #757308",
"S  c #50413B",
"D  c #634B48",
"F  c #7D4C53",
"G  c #796F6A",
"H  c #840B07",
"J  c #8A0909",
"K  c #960F09",
"L  c #8C140D",
"P  c #851009",
"I  c #9F150C",
"U  c #9A1307",
"Y  c #921A10",
"T  c #961710",
"R  c #8A1913",
"E  c #A40D09",
"W  c #A7180C",
"Q  c #B8180A",
"!  c #A51410",
"~  c #A91B1A",
"^  c #A21E17",
"/  c #BD1D13",
"(  c #872409",
")  c #9D221C",
"_  c #982902",
"`  c #AE211D",
"'  c #AE2417",
"]  c #BD2115",
"[  c #B5231A",
"{  c #AE3107",
"}  c #992122",
"|  c #C51C0E",
" . c #C7180B",
".. c #DE1106",
"X. c #D31D0C",
"o. c #DB1C0D",
"O. c #D71608",
"+. c #C81D15",
"@. c #D41E12",
"#. c #DB1C12",
"$. c #DF1D19",
"%. c #D01711",
"&. c #D60E03",
"*. c #EE0E05",
"=. c #F20D04",
"-. c #F80D06",
";. c #E51504",
":. c #EC1304",
">. c #EE1B04",
",. c #E5130C",
"<. c #ED130B",
"1. c #E51D0C",
"2. c #EA1B0C",
"3. c #E61905",
"4. c #F41403",
"5. c #FC1502",
"6. c #F41C03",
"7. c #FD1A02",
"8. c #F3140A",
"9. c #FB140A",
"0. c #F31C0A",
"q. c #FD1B09",
"w. c #E41C11",
"e. c #F61A12",
"r. c #CB210D",
"t. c #CB2C0C",
"y. c #C62E0F",
"u. c #D5220D",
"i. c #DC260B",
"p. c #CF2113",
"a. c #C22213",
"s. c #DC2113",
"d. c #D72511",
"f. c #DE3917",
"g. c #E4210C",
"h. c #E72307",
"j. c #F42202",
"k. c #FB2302",
"l. c #F52B02",
"z. c #FB2C03",
"x. c #F8240D",
"c. c #E03108",
"v. c #F53304",
"b. c #FC3503",
"n. c #F53D01",
"m. c #FB3C04",
"M. c #F63409",
"N. c #FC3B0A",
"B. c #F9360B",
"V. c #E62112",
"C. c #E92614",
"Z. c #F63A14",
"A. c #EE3913",
"S. c #DF3A31",
"D. c #E8352B",
"F. c #934E13",
"G. c #A55011",
"H. c #816610",
"J. c #BA611A",
"K. c #DE4D12",
"L. c #D65A0E",
"P. c #E24F06",
"I. c #FC4503",
"U. c #F64C02",
"Y. c #FC4A02",
"T. c #FC4409",
"R. c #FC490A",
"E. c #F54806",
"W. c #EE5B0C",
"Q. c #F75403",
"!. c #FC5301",
"~. c #FC5C02",
"^. c #FC5D08",
"/. c #FA560A",
"(. c #EC4418",
"). c #E55B15",
"_. c #F65616",
"`. c #FC6202",
"'. c #F5650D",
"]. c #F86706",
"[. c #F57304",
"{. c #F57707",
"}. c #EC6B11",
"|. c #EF7D1B",
" X c #F77414",
".X c #F0671B",
"XX c #D85F20",
"oX c #DC4227",
"OX c #C26021",
"+X c #C37229",
"@X c #845459",
"#X c #814A61",
"$X c #867475",
"%X c #E55549",
"&X c #DB605A",
"*X c #CE7B72",
"=X c #E16365",
"-X c #7A807A",
";X c #9F9A1B",
":X c #998814",
">X c #A49A1E",
",X c #928A24",
"<X c #A9A52E",
"1X c #ED851B",
"2X c #FE8616",
"3X c #F0993A",
"4X c #C5BF26",
"5X c #F0A42E",
"6X c #F5EF05",
"7X c #FCEE03",
"8X c #F9EB0A",
"9X c #F5F305",
"0X c #FCF102",
"qX c #FCF20A",
"wX c #FEFA0B",
"eX c #FCF41B",
"rX c #F8F313",
"tX c #D7D236",
"yX c #E8EA2E",
"uX c #F1ED25",
"iX c #F8F228",
"pX c #DFD741",
"aX c #B37795",
"sX c #BFB7B5",
"dX c #D0918D",
/* pixels */
"                                                                                                                                ",
"                                                                    M a a                                                       ",
"                                                                    w w.9                                                       ",
"                                                                  2 D.e.<                                                       ",
"                                                                  dX4.9.i                                                       ",
"                                            : b                 5 &X9.9.P                                                       ",
"                                            , -                 N *.4.5.@.y                                                     ",
"                                          1 / i               % =X8.6.6.2.-                                                     ",
"                                          - i./ n             4 S.4.M.B.0.*                                                     ",
"                                          0 4.2.<             ) 8.7.R.N.5.h v                                                   ",
"                                          ~ 7.x.W           D p.5.j.Y.U.q.| *                                                   ",
"                                        G w.6.T.s.S         3 o.7.z.Y.U.b.2.8                                                   ",
"                          3             v 4.M.I.4.8 sX      & >.q.N.Y.Y.R.4.^ F                                                 ",
"                          .           -X*X4.R.Y.M.a.:       8 7.j.I.U.Y.Y.l.w.;                                                 ",
"                          b 7         B %X5.Y.Y.R.3.<       a 6.T.Y.~.Y.Y.I.9.O         3 D                                     ",
"                          [ ,         j 1.6.U.Y.Y.z./ 3     T I.U.Y.~.~.Y.Y.z.w         O -                                     ",
"                          s.' $X      W 5.k.Y.Y.Y.T.M.+   o { I.Y.R.~.`.Y.Y.m.K       N 8 9                                     ",
"                          o.e.;       %.5.M.Y.Y.!.E.E.s . . y.I.Y.Y.`.`.Y.Y.Y.Q 5     - I H                                     ",
"                          w.4.J     5 #.5.R.Y.~.`.Y.Y.c.+ O f.Y.Y.~.~.`.!.U.Y.X.#     d 2./ @X                                  ",
"                        : w.5.V.+   # #.q.m.!.~.`./.Y.Y.(.w.M.Y.I.~.`.`.`.U.U.h.*   - d.0.#.2                                   ",
"                        ; 1.6.4.8 O + o.q.N.!.`.`.~.!.Y.M.5.b.Y.Y.`.`.`.`.!.U.j., X * 8.q.g.;                                   ",
"                        - V.j.m.1.s O 2.7.R.~.`.`.~.~.Y.N.8.m.I.!.~.~.`.`.!.U.k.} + ~ 7.7.8.,                                   ",
"                        # g.l.U.E.>.J <.N.Y.~.`.`.`.~.!.Y.Y.I.!.~.`.`.~.`.!.Y.M.2.T 4.R.z.5.8                                   ",
"                        # 2.b./.U.U.>.9.v.Y.`.`.`.`.`.Y.I.Y.Y.!.`.`.`.`.~.!.I.b.4.x.4.Y.N.7.a F                                 ",
"                        & 2.m.~.`.!.Y.4.7.U.~.~.`.~.~.Y.Y.U.Y.I.Y.~.~.!.!.Y.Y.m.5.9.k.Y.T.q.Y b                                 ",
"                        & 1.I./.`.].~./.I./.E.U.Y.Y.I.Y.Y.Y.Y.Y.Y.Y.Y.Y.Y.U.U.Y.5.-.m.R.Y.5.a.1                                 ",
"                        & g.I./.'.L.g k r r _ P.Y.I.Y.Y.Y.U.v.R.Y.I.Y.Y.Y.Y.Y.Y.7.9.I./.Y.l.| 1                                 ",
"                        + h.T.^.h C tXrXeXuX>Xe P.Y.Y.Y.U.R.6.m.U.Y.Y.Y.Y.Y.I.Y.4.5.Y.^.U.T.p.1                                 ",
"                        @ i.E.r uX9X7X0X0X0X0XeXZ _.E.U.N.j.9.5.j.I.Y.R.I.b.l.Y.j.6.Y.~.Y.R.@.,                                 ",
"                        O i.f.tX0X8X7X0X0X7X7X6XeXw h.6.7.5.5.7.7.5.5.q.7.5.7.Y.R.U.~.`.Y.Y.X.,                                 ",
"                        X s.( eX6X8XqX0X0X0X7X7X6XZ r.7.7.6.5.5.7.5.q.5.7.5.7.U.I.!.`.`.U.T.u.,                                 ",
"                        O d.r wX7X6X6X7X7X0X7X0X7XpXd 7.7.7.5.7.5.5.7.5.5.5.6.U.I.~.`.`.Y.I.| *                                 ",
"                        X u.r wX0XA V 6X0X7X0X0X0XyXf 9.5.5.5.7.7.7.7.5.7.7.5.Y.Y.U.`.`.!.I.] &                                 ",
"                        X p.q wXqX;XC 0X0X0X0X7X7XyXp -.5.5.5.5.5.7.7.7.7.5.5.T.Y.Y.~.`.~.m.[ ;                                 ",
"                        # Q ` yX7X8X7X7X0X0X0X7X7X<XU 5.5.5.-.5.7.7.7.5.7.5.5.z.Y.Y.`.`.~.b.j 2                                 ",
"                        4 E C.H.8X6X0XqX7X7X7X6XeXq 2.-.5.5.5.5.5.5.7.7.5.7.q.6.R.Y.~.~.Y.j.8 M                                 ",
"                          d 1.q iX0X0X7X0X0X0X8X:Xr.9.4.5.5.5.5.5.7.7.7.7.7.5.7.m.R.Q.Y.Y.>.*                                   ",
"                          * u.Z.r ,XeXqX0XeXtXz u.7.j.5.7.5.5.5.7.7.5.7.7.7.7.7.j.b.Y.I.!.$.-                                   ",
"                          + ! N.R.(.( q g h r.x.q.9.q.5.5.7.7.7.5.5.7.7.7.7.k.7.z.b.Y.^._.W                                     ",
"                            8 b.Q.R.Y.n.z.x.6.0. .7.7.7.7.5.7.7.7.7.7.7.7.7.q.k.z.m.!.[.l.8                                     ",
"                            = K.Q.Q.Y.m.z.q.x.j ! 7.q.7.7.7.7.7.7.7.7.7.7.7.k.k.m.I.~._.a.$                                     ",
"                              0 2X[.`.Y.I.M.* , k.k.j.j.7.7.7.7.7.7.5.7.5.k.k.z.I.!.].t.*                                       ",
"                              ; 5X[.].!.I.f * / 6.7.7.7.7.7.k.7.7.7.7.5.7.k.z.m.!.`.{.q -                                       ",
"                                6 3X[.).q w A.z.k.7.7.5.7.7.7.5.7.5.7.k.7.z.b.Y.^.].G.=                                         ",
"                                  $ 3X).W.Q.E.m.z.j.7.7.7.5.7.7.7.7.7.z.b.I.Y.~.{.OXX                                           ",
"                                    l 1X[.~.!.Y.m.b.z.z.k.k.k.j.j.z.b.n.I.Y.~.].J.+                                             ",
"                                      ; +X{.`.`.Y.Y.I.m.b.b.b.b.m.n.Y.Y._.].{.c $                                               ",
"                                        # t 1X{.`.~.~.!.!.Y.U.!.!.!.XXa 9 , =                                                   ",
"                                          6 > F.|. X X'.].'.'.'..X{ , h @.,                                                     ",
"                                                t = - + + & & * , J @.,.s.,                                                     ",
"                                                      > @.%.#.&.3.*.4.X.8                                                       ",
"                                                      * ;.=.:.4.:.o.E 0                                                         ",
"                                                    s 9 O.:.:.=...i                                                             ",
"                                                  P <.w  .:.=.4.:.!                                                             ",
"                                                & o.4.a Q ,.4.=.<.+.                                                            ",
"                                                , g.~ # K *.:.=.:.r.                                                            ",
"                                                  # m   i &...;.*.w.t                                                           ",
"                                                        L ;.H U ;.;.,                                                           ",
"                                                      , ,.=.L 8 @.=.j m                                                         ",
"                                                      L ;.:.* X K =.#.*                                                         ",
"                                                    $ | =.o.@ % w ;.2.9                                                         ",
"                                                    # :.8.a     . @.=.}                                                         ",
"                                                    2 #.R -       * ~ *                                                         ",
"                                                      0 2 aX      v - #X                                                        "
};
