/* XPM */
static char *e7ac66c075fc4df2b115a1494b84c94cP83wXWZzqzNv3LVy[] = {
/* columns rows colors chars-per-pixel */
"64 64 224 2 ",
"   c None",
".  c #0B0203",
"X  c #070503",
"o  c #150404",
"O  c #1C0403",
"+  c #1D0A0A",
"@  c #100A08",
"#  c #230403",
"$  c #2B0302",
"%  c #2B0902",
"&  c #260908",
"*  c #330503",
"=  c #3B0403",
"-  c #320A05",
";  c #380909",
":  c #271005",
">  c #381608",
",  c #341717",
"<  c #391B1A",
"1  c #271515",
"2  c #440604",
"3  c #4C0604",
"4  c #4B0906",
"5  c #460A09",
"6  c #520C09",
"7  c #5D0B09",
"8  c #580805",
"9  c #4A1909",
"0  c #5C120F",
"q  c #46181B",
"w  c #501717",
"e  c #630C06",
"r  c #640D09",
"t  c #6C0E0A",
"y  c #6D0A05",
"u  c #740B05",
"i  c #730E08",
"p  c #7A0C08",
"a  c #7B0D05",
"s  c #621207",
"d  c #6B110C",
"f  c #691307",
"g  c #7B1904",
"h  c #74110B",
"j  c #7C120C",
"k  c #721206",
"l  c #741B15",
"z  c #6A1A19",
"x  c #57261F",
"c  c #70370C",
"v  c #7B2C05",
"b  c #472827",
"n  c #562A2B",
"m  c #4F2A32",
"M  c #4A3332",
"N  c #583938",
"B  c #602F2F",
"V  c #783C3D",
"C  c #454006",
"Z  c #7D520C",
"A  c #7C770A",
"S  c #6B4449",
"D  c #800E0A",
"F  c #8C0D08",
"G  c #850B04",
"H  c #940C08",
"J  c #84130C",
"K  c #8C130B",
"L  c #8A1B09",
"P  c #851809",
"I  c #94130C",
"U  c #9C130C",
"Y  c #941A0D",
"T  c #971808",
"R  c #821311",
"E  c #991912",
"W  c #B80F0C",
"Q  c #A2130A",
"!  c #AB150C",
"~  c #A11B0C",
"^  c #A9180C",
"/  c #BA1B0D",
"(  c #B7170D",
")  c #AC1A12",
"_  c #A51914",
"`  c #B31A12",
"'  c #BE1A11",
"]  c #892608",
"[  c #873608",
"{  c #8A3409",
"}  c #97330B",
"|  c #833C13",
" . c #BA240D",
".. c #B72210",
"X. c #A93912",
"o. c #B93715",
"O. c #AE300C",
"+. c #933C3A",
"@. c #AF3E3B",
"#. c #CE150A",
"$. c #C51B0C",
"%. c #CB190C",
"&. c #C5160B",
"*. c #D5170A",
"=. c #D41A0B",
"-. c #D91B0D",
";. c #DB1507",
":. c #C51811",
">. c #DB1C10",
",. c #F40E05",
"<. c #ED1305",
"1. c #E31409",
"2. c #EE140A",
"3. c #E51B0B",
"4. c #EB1B0C",
"5. c #EA1906",
"6. c #F21204",
"7. c #FD1504",
"8. c #F51B05",
"9. c #FD1A03",
"0. c #F31409",
"q. c #F21A0A",
"w. c #FD1B09",
"e. c #FD1208",
"r. c #C5260C",
"t. c #D3240D",
"y. c #DA230A",
"u. c #D2320C",
"i. c #DD2110",
"p. c #D8251A",
"a. c #D83910",
"s. c #ED220B",
"d. c #ED2A09",
"f. c #E6210A",
"g. c #F62104",
"h. c #FC2302",
"j. c #F42A05",
"k. c #FB2B03",
"l. c #F12B09",
"z. c #F82A0C",
"x. c #E9300C",
"c. c #F53104",
"v. c #FB3404",
"b. c #FC3C03",
"n. c #F4340B",
"m. c #FD3D08",
"M. c #F73A08",
"N. c #EA2216",
"B. c #E3251A",
"V. c #E23127",
"C. c #8F460F",
"Z. c #8E4B14",
"A. c #8C5C10",
"S. c #9B4414",
"D. c #B95F14",
"F. c #AB4D11",
"G. c #996B0F",
"H. c #927412",
"J. c #8A6116",
"K. c #A0710E",
"L. c #935721",
"P. c #BC7528",
"I. c #DF550B",
"U. c #DC5B13",
"Y. c #C95315",
"T. c #EC4C0C",
"R. c #E2440D",
"E. c #FD4304",
"W. c #FD4B02",
"Q. c #FD450A",
"!. c #F64B09",
"~. c #FC4A09",
"^. c #F3450A",
"/. c #E75C0D",
"(. c #FD5302",
"). c #FD5B03",
"_. c #FB5308",
"`. c #F7570A",
"'. c #E54611",
"]. c #E35911",
"[. c #F05F10",
"{. c #CC6317",
"}. c #CE6817",
"|. c #DF6012",
" X c #E2600E",
".X c #FE6202",
"XX c #FE6202",
"oX c #FB6B04",
"OX c #FB650E",
"+X c #F9690C",
"@X c #FA7507",
"#X c #E66014",
"$X c #FE6311",
"%X c #EC7E16",
"&X c #F37615",
"*X c #CE7B2D",
"=X c #864340",
"-X c #B84840",
";X c #A36664",
":X c #DF4D49",
">X c #E74841",
",X c #9F841B",
"<X c #A79E10",
"1X c #AD901A",
"2X c #BAAA19",
"3X c #F98711",
"4X c #C7B218",
"5X c #EF8021",
"6X c #C4BF24",
"7X c #D6C917",
"8X c #E6D410",
"9X c #FEEF04",
"0X c #F1EC0C",
"qX c #FDED09",
"wX c #FDF102",
"eX c #FCF10B",
"rX c #ECE618",
"tX c #F8EE13",
"yX c #F3EA19",
"uX c #FBF314",
"iX c #F7F517",
"pX c #DFD722",
"aX c #E8DB23",
"sX c #F9F422",
/* pixels */
"                                                  l 2                                                                           ",
"                                                  E _ w                                                                         ",
"                                                  I B.+.                                                                        ",
"                                                  U 0.>Xb                                                                       ",
"                                                  :.e.2.;X                                                                      ",
"                                                  3.7.e.:Xm                 # O                                                 ",
"                                                r 0.w.w.N.V                 6 4                                                 ",
"                                                I 8.v.g.0.@.M             ; U Y                                                 ",
"                                                :.9.b.v.9.p.b             7 3.-.=                                               ",
"                                              8 3.z.W.Q.9.q.0           b K 4.8.t                                               ",
"                                              a 8.m.W.~.h.8.J b         x *.z.7.U                                               ",
"                                              ! h.W.W.W.j.9.( 1         K g.Q.8.p.B             @                               ",
"                                            3 =.M.W.W.W.M.w.*.+       N %.j.~.k.N.=X            X                               ",
"                                            e s.Q.W.W.(.W.k.3.*       6 d.E.W.m.8.-X            +                               ",
"                                .           K v.W.W.).(.E.W.l.6     < E n.W.E.W.w.V.n         2 z S                             ",
"                                w &       # / b.W.W.).(.W.W.^.d     ; y.W.W.W.W.w.4.l         j E N                             ",
"                                _ ;       $ y.E.W.(..X(.W.W.~.P . . k ^.W.(.W.W.j.9.R       & $.~ M                             ",
"                              3 -.I q     2 d.W.W.)..X).(.W.W.Y X $ r.W.W.).(.W.v.7.U       7 0.! m                             ",
"                              r 4.4.4     h l.W.W..X.X.X(.W.W.t.f o.^.W.).XX).W.M.9._     - :.e.( b                             ",
"                              J q.8.) O   Q n.W.(..X.X.X).W.W.j.q.!.W.(.).XX.XW.v.9.) O + r 4.9.( q                             ",
"                              ! 9.w.4.*   *.b.W.).XX.X.X).(.W.k.8.E.W.)..X.X.XW.n.7.( o $ %.k.k./ <                             ",
"                              &.w.h.9.J 6 4.E.W..XXX.X.X.X(.W.b.j.W.(..X)..X.X(.E.k./ * ( l.~.k.' <                             ",
"                              -.8.~.k.3.B.6.E.W.)..X.X.X.X.XW.W.W.W.(.XX.X.X.X_.W.v.2.=.M.!.(.v.' ,                             ",
"                              -.9.Q.E.9.7.8.W.W.(.).)..X.X(.E.W.W.W.W.XX.X.XoX(.W.k.0.b.W.).(.v.$.<                             ",
"                              4.k.W.~.h.e.h.W.W.W.W.W.W.W.W.W.W.W.W.W.(.).).(.W.E.g.v.W.).oX).b.$.-                             ",
"                            D 4.k.W.W.k.e.M.W.W.W.W.W.W.W.~.W.W.W.W.E.W.W.W.!.!.T.R.[.OX+XXX`.b.r.-                             ",
"                            F s.E.W.W.v.e.E.W.W.W.W.W.W.W.W.b.c.W.W.W.W.W.!.X.C.G.K.G.Z.S./.(.b.$.&                             ",
"                            H l.W.(.).v.7.b.W.E.W.W.W.W.W.E.h.9.E.W.W.W.!.} ,XyXiXeXeXyX2X[ ].E. .$                             ",
"                            G j.W.(..XE.l.E.b.h.v.E.Q.b.k.9.7.9.8.v.Q.Q.{ 4XtX9XwXwXwXwXeXaXc T. .#                             ",
"                            G l.W.(..X).W.W.E.9.9.9.9.9.9.9.9.7.9.9.9.t.H.0X9X9XwXwXwXwXeXeX2Xr...O                             ",
"                            G d.W.(..XoX(.W.E.9.9.7.9.9.9.7.9.9.9.9.w.I pXwXwX9XwXwXwXeXwXwXuX] ) +                             ",
"                            u d.W.(..X.X(.W.b.9.9.9.7.9.9.9.9.9.9.9.q.g iXwXwX9XwXwXwXrX0XwXuX[ E O                             ",
"                            u l.W.(..X.X(.W.E.w.9.9.7.9.9.9.7.9.7.9.q.g sXwXwXwXwXwX9XrX0XwXiX[ ~ O                             ",
"                            e s.W..XXX).W.W.v.9.9.9.9.9.9.7.9.7.7.7.4.v iXwXwXwXwXwX0XC A wXeX[ T @                             ",
"                            3 f._..XXX(.W.W.k.9.9.9.7.9.9.9.7.7.7.7.0.g sXwXwXwXwXwXeX<X7XwXtXP L +                             ",
"                            * y.E..X.X).W.E.9.7.9.7.9.9.9.7.7.7.7.7.7.Q 7XwXwXwXwXwXwXwXqXeX6X) G o                             ",
"                            # %.n.(.).(.W.v.9.w.9.9.9.9.9.7.7.7.7.7.9.y.A.yXwXwX9XwX9XwX9XyXZ i.y                               ",
"                              U v.W.W.W.Q.h.9.9.9.9.9.7.9.7.7.7.7.7.w.q./ A.rXwX9X9XwXwXtX,XO.i.4                               ",
"                              d d._.W.E.v.9.9.h.9.9.9.9.9.9.9.9.7.9.9.w.q.$.| 2X7X8X8X4XJ.X.n.$.*                               ",
"                              = &.$X(.W.v.h.9.9.h.9.9.9.9.9.9.9.7.9.9.9.9.w.q.' ] ] ] X.R.W.b.K #                               ",
"                              & j !..X(.b.k.9.9.9.9.9.9.9.9.9.9.9.9.9.9.q.! s.h.h.k.b.W.W.W.n.5                                 ",
"                                * u.OX(.E.v.h.h.9.9.9.9.9.9.9.9.9.9.h.w.g.I y s.h.v.E.(.).OXo.                                  ",
"                                  k [..X(.b.k.h.9.9.9.9.h.9.9.9.9.h.9.h.9.y.3 k x.E.(..X@X5X9                                   ",
"                                  O } @X).W.b.k.h.9.7.9.9.9.h.9.9.9.h.9.w.g.t.= 7 '.XXoX3XL.                                    ",
"                                    $ {.oX(.W.v.k.h.h.9.9.9.9.9.9.9.9.9.9.h.k.a.f f /.@XP.%                                     ",
"                                      > }.oX).W.b.v.h.h.9.9.9.9.9.9.9.h.h.v.E.W.`./. X*X>                                       ",
"                                        - {.+X).W.^.b.v.k.k.h.h.h.k.k.v.b.W.W.).oX@XP.:                                         ",
"                                          $ S.&XU.T.W.W.E.b.b.b.b.b.E.E.(.(..XoX%XZ.O                                           ",
"                                            & 9 4 s ] U.`.(.W.(.(.(.(.).XXoX&XD.9 O                                             ",
"                                                _ #.K d } Y.U./. X X|.|.{.D.c -                                                 ",
"                                                p 1.1.:.p 2 * % % % %                                                           ",
"                                                  K >.0.<.;.#.#.#.~ -                                                           ",
"                                                    p Q :.4.6.<.,.! * $                                                         ",
"                                                        H 1.6.2.<.U d e                                                         ",
"                                                        >.<.6.,.2.D J >.4                                                       ",
"                                                        3.6.,.6.1.e j 2.! -                                                     ",
"                                                        5.,.,.<.1.4 = ) ` *                                                     ",
"                                                      K <.<.;.<.#.=     #                                                       ",
"                                                      ! <.*.8 W ;.e #                                                           ",
"                                                      %.6.! # ` <.W =                                                           ",
"                                                    h 4.2.i o y 1.1.y ,                                                         ",
"                                                    I <.*.2   * -.,.Q O                                                         ",
"                                                    ` <.F       Y 6.&.&                                                         ",
"                                                    j ) *       2 :.' -                                                         "
};
