/* XPM */
static char *_3d9e39f79974e21fd41010653d09afbvy589Qh1pSw7ZgUu[] = {
/* columns rows colors chars-per-pixel */
"64 64 184 2 ",
"   c None",
".  c #030203",
"X  c #0A0405",
"o  c #0D0B06",
"O  c #05040A",
"+  c #0A050A",
"@  c #0B0A0C",
"#  c #120604",
"$  c #180505",
"%  c #150905",
"&  c #190A05",
"*  c #140509",
"=  c #1B0709",
"-  c #110C0F",
";  c #1C0B09",
":  c #171008",
">  c #101014",
",  c #1B1B1E",
"<  c #1C1415",
"1  c #2B0706",
"2  c #230A06",
"3  c #280F06",
"4  c #230D0A",
"5  c #330B07",
"6  c #3C0A05",
"7  c #340B09",
"8  c #331205",
"9  c #231110",
"0  c #2C230E",
"q  c #3E3309",
"w  c #1F1F21",
"e  c #242425",
"r  c #29292D",
"t  c #440B04",
"y  c #4B0C04",
"u  c #450809",
"i  c #520907",
"p  c #5E0D06",
"a  c #5C0E0A",
"s  c #471703",
"d  c #491005",
"f  c #451608",
"g  c #491B08",
"h  c #4E1C05",
"j  c #501005",
"k  c #5A1004",
"l  c #591C06",
"z  c #650E04",
"x  c #690E06",
"c  c #640D09",
"v  c #710C04",
"b  c #6D1806",
"n  c #6B1209",
"m  c #701004",
"M  c #7A1105",
"N  c #73130D",
"B  c #532105",
"V  c #40330B",
"C  c #4C3F0A",
"Z  c #6E2406",
"A  c #652F07",
"S  c #7E2D08",
"D  c #6B310D",
"F  c #783508",
"G  c #62530C",
"H  c #414045",
"J  c #821104",
"K  c #881A05",
"L  c #8C1508",
"P  c #971104",
"I  c #9D1002",
"U  c #9A1807",
"Y  c #AC1303",
"T  c #B01304",
"R  c #BB1705",
"E  c #B21F08",
"W  c #B91C06",
"Q  c #AE1E11",
"!  c #B71F18",
"~  c #823907",
"^  c #AE2005",
"/  c #A32A06",
"(  c #A83E04",
")  c #B53205",
"_  c #C31603",
"`  c #CB1C04",
"'  c #CE1A0B",
"]  c #C31E04",
"[  c #D91604",
"{  c #DC1904",
"}  c #DE1808",
"|  c #D61B04",
" . c #C51F12",
".. c #D01C13",
"X. c #DE1F15",
"o. c #D71E1A",
"O. c #DD1E1E",
"+. c #E51602",
"@. c #E91601",
"#. c #E21C05",
"$. c #ED1A03",
"%. c #ED1E0D",
"&. c #FF1702",
"*. c #F31B02",
"=. c #FD1B01",
"-. c #F41B08",
";. c #D22607",
":. c #D72C04",
">. c #DC2604",
",. c #C6330E",
"<. c #CD3304",
"1. c #D63E05",
"2. c #DA3605",
"3. c #D62014",
"4. c #EF2104",
"5. c #EE2D05",
"6. c #E3200E",
"7. c #F32502",
"8. c #FE2402",
"9. c #F12A04",
"0. c #FE2B03",
"q. c #FB2608",
"w. c #FC2A08",
"e. c #ED3403",
"r. c #EA3C04",
"t. c #F63506",
"y. c #FB3605",
"u. c #FE3302",
"i. c #F63B06",
"p. c #FD3E01",
"a. c #FE3B02",
"s. c #F33408",
"d. c #FD3B09",
"f. c #FC3409",
"g. c #E22016",
"h. c #A84008",
"j. c #8C780A",
"k. c #C74004",
"l. c #D84007",
"z. c #DE4D03",
"x. c #CA5205",
"c. c #EF4E06",
"v. c #E74A08",
"b. c #FD4102",
"n. c #FD4302",
"m. c #FF4203",
"M. c #FF4303",
"N. c #FE4202",
"B. c #FE4101",
"V. c #FD4402",
"C. c #FE4602",
"Z. c #FE4205",
"A. c #FF4303",
"S. c #F04B04",
"D. c #FF4E01",
"F. c #FE4B02",
"G. c #F7420D",
"H. c #FC4209",
"J. c #E05305",
"K. c #ED5409",
"L. c #ED5D0D",
"P. c #F55003",
"I. c #FF5000",
"U. c #FF5001",
"Y. c #FE5202",
"T. c #FF5001",
"R. c #F6520B",
"E. c #F45D06",
"W. c #AD9506",
"Q. c #D9AC0C",
"!. c #E9BD09",
"~. c #EEC607",
"^. c #FDCC03",
"/. c #F1C50A",
"(. c #FBCA09",
"). c #E1D208",
"_. c #FDD503",
"`. c #FEDB01",
"'. c #FCD10B",
"]. c #FEE302",
"[. c #FFEB01",
"{. c #FDE60A",
"}. c #FDEC0C",
"|. c #FAF005",
/* pixels */
"                                                                        >                                                       ",
"                                                                        .                                                       ",
"                                                                        . .                                                     ",
"                                                                      H . ~ .                                                   ",
"                                          @                           r . P.. .                                                 ",
"                                            . O                       O . H.s..                                                 ",
"                                            . . .                     . . y.u.;..                                               ",
"                                            . 9 . .                   . O u.u.i.. O                                             ",
"                                            . a.a.. .                 . 2 0.0.0.d .                                             ",
"                                            . d.u.e.O .               . ( 0.0.0.0.O @                                           ",
"                                            . a.0.0.E .             , . c.0.0.0.0.d .                                           ",
"                                            . t.w.8.8.X O           O . u.0.m.w.0.0..                                           ",
"                                            . w.0.0.8.y .           . g 8.y.m.C.0.w.. @         @                               ",
"                                          . B 0.8.8.8.8.. .         . c.8.C.m.Y.0.8.% .         . O                             ",
"                                        . . y.8.8.=.8.=.. .     e e . 8.=.p.F.D.m.8.` .         . O                             ",
"                          .             . D 8.8.8.0.8.8.# .     @ o . =.8.m.Y.Y.m.u.7.. .     r . . @                           ",
"                          . . e       . A w.8.8.8.V.8.8.m .     . . z.=.a.m.D.Y.C.C.8.X .     . 3 . .                           ",
"                        , ; X .       . t.8.8.=.m.m.y.=.| .   . + @ =.8.m.D.Y.Y.D.m.=.X .   . . J.U O                           ",
"                        @ F :..     O + 8.8.8.a.m.m.m.=.*.. . . x.x.=.C.C.Y.Y.D.D.m.8.y .   . . a.0.. X                         ",
"                        . K.u.p .   . h 8.8.8.m.C.m.C.&.*.. . n.=.&.a.C.m.D.D.Y.Y.m.=.| . . . 2 8.u.d .                         ",
"                        . n.u.u..   . v.8.=.C.m.C.C.m.n.&.7.=.=.p.p.n.m.D.Y.Y.D.Y.m.8.7.O . X G.0.H.7..                         ",
"                        . n.0.u..   . v.8.8.C.m.m.C.m.m.&.q.=.&.p.p.m.m.Y.D.D.Y.D.m.8.8.O . X G.0.n.7..                         ",
"                      @ . y.u.0.. . . a.8.8.m.m.m.Y.m.m.7.&.&.u.m.m.m.n.D.Y.Y.D.Y.m.8.8.X . L.q.m.m.9..                         ",
"                      @ . y.0.0.6 . . 8.=.0.C.m.D.D.Y.C.a.u.8.M.m.C.m.V.Y.D.Y.Y.D.a.u.=.u E.0.m.C.m.a.. w                       ",
"                      . . a.a.0.5.. 2 8.=.C.C.D.D.Y.D.C.M.m.M.M.m.m.m.C.Y.Y.D.Y.Y.m.a.8.=.a.m.m.m.m.m.2 .                       ",
"                      . . m.m.0.9.. h.8.8.m.m.Y.D.Y.Y.C.M.M.M.M.m.C.m.C.Y.D.D.Y.D.m.a.=.0.m.M.M.m.C.C.K .                       ",
"                      O X m.C.a.0.4 y.8.a.C.C.Y.D.Y.Y.D.m.m.m.m.m.m.m.C.V.Y.Y.D.C.m.m.m.C.M.M.M.m.Y.D.5..                       ",
"                      . X m.D.m.0.0.w.8.m.m.m.D.Y.Y.D.Y.m.C.m.C.y.u.y.C.C.C.Y.D.m.m.m.m.m.m.M.M.D.Y.Y.0..                       ",
"                      O . m.Y.C.u.0.0.8.m.m.m.C.C.D.C.M.M.M.C.=.=.=.=.&.u.C.m.m.m.M.M.C.m.C.C.Y.Y.D.Y.0.. .                     ",
"                      . . m.Y.Y.m.0.0.8.m.m.m.m.m.m.a.C.M.m.&.=.=.=.=.=.=.=.&.=.8.8.8.w.m.m.Y.Y.D.Y.Y.u.X .                     ",
"                      + . m.Y.Y.C.m.0.0.u.C.C.,.5 X o + W -.=.=.=.=.=.=.=.&.=.=.8.8.8.8.m.m.Y.Y.Y.Y.Y.0.. .                     ",
"                      @ . m.Y.D.Y.C.a.0.8.8.o (._.`.`.`.^.q -.=.=.=.=.=.&.8.% X % % *.=.m.m.C.Y.D.D.Y.u.X .                     ",
"                        . m.C.Y.Y.Y.D.m.8.L (._.].[.[.]._.^.O =.=.=.=.=.q.0 _.`.]._.W.7.p.M.m.C.Y.Y.C.u.* .                     ",
"                        . M.m.Y.D.D.Y.y.w.o ^.`.].[.|.{.`._.X &.=.=.=.=.#.~.].[.[.].(.a q.M.m.m.V.D.a.u.% .                     ",
"                        . 1.m.Y.Y.D.Y.0.w.X ^.`.[.[.0 W.`.^.O 8.8.8.8.8.` '.).O }.]._.5 q.m.m.m.m.C.m.u.# .                     ",
"                        - s a.m.Y.D.n.0.0.E !._.`.].`.`.(.G 7.8.8.8.8.=.q.@ `.].`.`.j.7.0.u.m.C.m.m.m.a.. .                     ",
"                        , X a.m.m.m.m.0.0.0.X Q.(._._./.; m 8.8.8.8.8.8.8.#.@ V C & p w.0.0.C.m.m.C.m.a.O .                     ",
"                          . p.a.m.m.m.u.u.0.0.w.>.] ] q.0.8.8.8.8.0.8.8.8.8.8.8.0.0.0.w.0.0.y.m.m.m.m.d.X .                     ",
"                          . F.a.m.m.C.u.u.u.0.0.0.0.w.8.0.8.0.8.0.8.0.8.0.8.w.0.0.w.0.0.0.u.u.a.m.m.m.a..                       ",
"                          . ) m.a.m.C.u.a.u.u.u.0.0.0.w.0.8.w.0.w.0.w.8.0.0.0.w.0.0.0.u.u.u.u.a.a.C.a.) .                       ",
"                          w . n.m.a.m.a.a.u.u.u.u.u.0.u.0.0.0.u.0.0.0.u.0.0.u.0.u.u.u.u.u.u.a.a.a.a.n.X O                       ",
"                            . <.m.C.m.a.a.a.a.u.u.u.u.u.u.u.u.0.0.0.0.u.0.u.u.u.u.u.u.u.a.a.a.a.m.m.m..                         ",
"                            . O C.C.m.m.m.a.a.a.a.i.a.u.u.u.u.u.u.u.u.u.u.u.u.u.u.a.a.a.a.a.m.m.m.m.j O                         ",
"                              O / C.C.C.m.m.m.a.a.r.* e.u.a.u.a.u.a.a.u.a.u.a.a.a.a.a.a.a.m.m.C.V.l .                           ",
"                                O C.C.C.C.C.m.m.a.a.i.. b i.y.a.a.u.u.a.a.a.a.a.a.a.m.a.m.C.C.C.F.O .                           ",
"                                . ; F.C.C.C.C.m.m.m.C.m.2.8 O O # # 2 $ # $ m.C.m.C.C.C.C.C.C.C.O .                             ",
"                                  . @ P.D.D.C.C.C.C.C.C.C.m.m.H.V.n.n.H.m.a.M.C.C.C.C.C.C.C.) X .                               ",
"                                    . X F.F.C.D.D.C.C.C.C.C.C.C.C.C.C.C.C.C.C.C.C.C.D.C.Y.1.O .                                 ",
"                                      . . f D.D.C.D.C.D.C.D.C.C.C.C.C.C.C.C.D.D.F.D.D.k.o .                                     ",
"                                        O . # R.Y.Y.D.D.C.D.D.D.D.D.D.D.Y.D.C.D.F.R.8 . .                                       ",
"                                            w . . # S P.D.P.Y.F.Y.Y.F.S.Y.S.Z # . O O                                           ",
"                                                  O # . . . . . . . . . . . . 7                                                 ",
"                                                  . =.-.` I p t 6 6 y M R -.=.6.-                                               ",
"                                                  } =.=.&.&.=.=.&.&.=.&.=.=.c &.o.-                                             ",
"                                                O =.=.* z =.=.&.=.=.=.&.=.%.  L &.O.                                            ",
"                                                x =.%.< P =.=.*.=.=.=.=.=.g.    =.-.&                                           ",
"                                              O *.-.N   Y *.&.*.*.*.*.&.*.X.    1 *.*.                                          ",
"                                              + ` n     T *.*.*.*.*.*.*.*.X.@     X *                                           ",
"                                                        Y *.*.*.*.*.*.*.*.3.@                                                   ",
"                                                        P @.$.$.$.$.[ $.$.3.-                                                   ",
"                                                        J @.@.+.p p , @.@...o                                                   ",
"                                                        x +.+. .5 5   +.+...X                                                   ",
"                                                        y { { ! X X   [ { ' O                                                   ",
"                                                        6 [ [ Q O +   _ [ ' O                                                   "
};
