/* XPM */
static char *_0cbf3d4453942d2ad1076b88daf1a60FTsvov8Pvy7PiuaK[] = {
/* columns rows colors chars-per-pixel */
"36 64 223 2 ",
"   c None",
".  c #0B0303",
"X  c #070503",
"o  c #140203",
"O  c #1C0303",
"+  c #1D0A0A",
"@  c #100908",
"#  c #230303",
"$  c #2B0403",
"%  c #240804",
"&  c #2B0902",
"*  c #260908",
"=  c #330503",
"-  c #3C0403",
";  c #320A05",
":  c #350907",
">  c #271005",
",  c #381608",
"<  c #341717",
"1  c #391B1A",
"2  c #271514",
"3  c #430604",
"4  c #4C0604",
"5  c #4B0906",
"6  c #44090A",
"7  c #4C0E0A",
"8  c #520C09",
"9  c #5D0B09",
"0  c #580805",
"q  c #4A1909",
"w  c #5C120F",
"e  c #510C10",
"r  c #46181B",
"t  c #501717",
"y  c #630C06",
"u  c #640D09",
"i  c #6C0E0A",
"p  c #6D0A05",
"a  c #730B06",
"s  c #730E08",
"d  c #790C08",
"f  c #7B0C05",
"g  c #621207",
"h  c #6B110C",
"j  c #691307",
"k  c #74110B",
"l  c #7C120C",
"z  c #761505",
"x  c #741B15",
"c  c #6A1A19",
"v  c #57261F",
"b  c #70370C",
"n  c #7B2C05",
"m  c #472827",
"M  c #552A2B",
"N  c #4F2A31",
"B  c #4A3332",
"V  c #583939",
"C  c #602F2F",
"Z  c #783C3D",
"A  c #454006",
"S  c #7D520C",
"D  c #7C770A",
"F  c #6B4448",
"G  c #800F0A",
"H  c #880C06",
"J  c #940D08",
"K  c #84130C",
"L  c #8C130B",
"P  c #8A1B09",
"I  c #851809",
"U  c #94130C",
"Y  c #9C130C",
"T  c #941A0D",
"R  c #971808",
"E  c #821311",
"W  c #991912",
"Q  c #B80F0C",
"!  c #A2130A",
"~  c #AB150C",
"^  c #A6190C",
"/  c #B4170C",
"(  c #BA1B0D",
")  c #BB160E",
"_  c #AC1A12",
"`  c #A51914",
"'  c #B31A12",
"]  c #BE1A11",
"[  c #892608",
"{  c #893509",
"}  c #97330B",
"|  c #833C13",
" . c #BA240D",
".. c #B72210",
"X. c #A93912",
"o. c #B93715",
"O. c #AE300C",
"+. c #933C3A",
"@. c #AF3E3B",
"#. c #CE150A",
"$. c #C51B0C",
"%. c #CB190C",
"&. c #C5160B",
"*. c #D5170A",
"=. c #D41A0B",
"-. c #D91B0D",
";. c #DB1507",
":. c #C51811",
">. c #DB1C10",
",. c #F40E05",
"<. c #ED1305",
"1. c #E31409",
"2. c #EE140A",
"3. c #E51B0B",
"4. c #EB1B0C",
"5. c #EA1906",
"6. c #F21204",
"7. c #FD1504",
"8. c #F51B05",
"9. c #FD1A03",
"0. c #F31409",
"q. c #F21A0A",
"w. c #FD1B09",
"e. c #FD1208",
"r. c #C5260C",
"t. c #D3240D",
"y. c #DA230A",
"u. c #D2320C",
"i. c #DD2110",
"p. c #D8251A",
"a. c #D83910",
"s. c #ED220B",
"d. c #ED2A09",
"f. c #E6210A",
"g. c #F62104",
"h. c #FC2302",
"j. c #F42A05",
"k. c #FB2B03",
"l. c #F12C09",
"z. c #F82A0C",
"x. c #E9300C",
"c. c #F53104",
"v. c #FB3404",
"b. c #FC3C03",
"n. c #F4340B",
"m. c #FD3D08",
"M. c #F73A08",
"N. c #EA2216",
"B. c #E3251A",
"V. c #E23127",
"C. c #8F460F",
"Z. c #8E4B14",
"A. c #8C5C10",
"S. c #9B4414",
"D. c #B95F14",
"F. c #AB4D11",
"G. c #996B0F",
"H. c #927412",
"J. c #8A6116",
"K. c #A0710E",
"L. c #935721",
"P. c #BC7528",
"I. c #DF550B",
"U. c #DC5B13",
"Y. c #C95315",
"T. c #EC4C0C",
"R. c #E2440D",
"E. c #FD4304",
"W. c #FD4B02",
"Q. c #FD450A",
"!. c #F64B09",
"~. c #FC4A09",
"^. c #F3450A",
"/. c #E75C0D",
"(. c #FD5302",
"). c #FD5B03",
"_. c #FB5308",
"`. c #F7570A",
"'. c #E54611",
"]. c #E35911",
"[. c #F05F10",
"{. c #CC6317",
"}. c #CE6817",
"|. c #DF6012",
" X c #E2600E",
".X c #FE6202",
"XX c #FD6202",
"oX c #FB6B04",
"OX c #FB650E",
"+X c #F9690C",
"@X c #FA7507",
"#X c #E66014",
"$X c #FE6311",
"%X c #EC7E16",
"&X c #F37615",
"*X c #CE7B2D",
"=X c #864340",
"-X c #B84840",
";X c #A36664",
":X c #DF4D49",
">X c #E74841",
",X c #9F841B",
"<X c #A79E10",
"1X c #AD901A",
"2X c #BAAA19",
"3X c #F98711",
"4X c #C7B218",
"5X c #EF8021",
"6X c #C4BF24",
"7X c #D6C917",
"8X c #E6D410",
"9X c #FEEF05",
"0X c #F6ED0B",
"qX c #FDF102",
"wX c #FCF10B",
"eX c #ECE61A",
"rX c #F8EE13",
"tX c #F3EA19",
"yX c #FBF314",
"uX c #F7F517",
"iX c #DFD722",
"pX c #E8DB23",
"aX c #F9F522",
/* pixels */
"                      x 3                                               ",
"                      W W t                                             ",
"                      U N.+.                                            ",
"                      Y 0.>Xm                                           ",
"                      &.e.2.;X                                          ",
"                      3.e.0.:XN                 * o                     ",
"                    u q.w.w.N.Z                 8 5                     ",
"                    U 8.k.h.0.@.B             - Y T                     ",
"                    :.9.m.v.9.p.m             9 3.-.3                   ",
"                  9 3.k.~.Q.9.4.w           m L q.0.i                   ",
"                  f 8.m.W.W.9.8.K B         v =.z.w.!                   ",
"                  ~ g.W.W.W.j.w./ 2         L g.Q.8.p.C             @   ",
"                4 =.m.W.W.W.M.8.=.%       V %.k.W.k.N.=X            X   ",
"                y s.Q.W.W.(.W.k.5.=       7 s.E.W.m.q.-X            +   ",
"    .           L v.W.W.).W.W.W.l.8     1 T v.W.W.W.w.V.M         3 c F ",
"    t *       O ( b.W.W.).(.W.W.^.k     : y.Q.W.W.W.9.4.x         k W V ",
"    W :       $ y.E.W.(.XX(.W.W.Q.I . o s Q.!.W.W.W.j.7.l       * $.^ V ",
"  4 -.Y r     3 d.W.W.).XX).(.W.W.R . $ r.W.W.).(.W.v.7.W       9 0.^ N ",
"  u 4.4.5     k c.!.(..XXX.X(.W.W.t.g F.!.W.).XX).W.b.8.`     ; :.e.' r ",
"  K 8.q._ O   ! c.W.(.XXXXXX).W.W.j.q.!.W.W..XXXXXW.v.w._ # + u 5.9.) 1 ",
"  ~ w.w.4.:   *.b.W.).XXXXXX).(.W.k.0.E.W.).).XX.XW.M.9.) o = %.v.z.' r ",
"  &.w.h.w.G 8 4.E.W.XXXXXXXXXX(.W.b.k.W.(.XXXXXX.XW.b.k.( $ / d.~.k.( 1 ",
"  *.8.W.c.5.B.0.E.W.).XXXXXXXX).W.W.W.W.(..XXXXXXX).W.v.2.-.M.W.(.v.] < ",
"  -.9.~.E.7.7.7.W.W.(.).).XXXX(.W.W.W.W.W.XXXXXXXX).W.k.0.m.W.)._.M.$.< ",
"  4.h.W.W.h.e.9.W.W.W.W.W.W.W.W.W.W.W.W.W.W.).).).W.E.8.k.(.).XX).b.$.: ",
"G 4.k.W.E.j.e.b.W.W.(.W.W.W.W.W.W.W.E.W.W.W.W.W.~.!.T.R.#XOXoXXX_.b.$.; ",
"H 4.Q.(.(.v.e.E.W.W.W.W.W.W.W.W.b.c.W.W.W.W.W.^.X.Z.G.K.G.Z.F.#X(.b. .$ ",
"J l.W.(.(.v.7.b.W.Q.W.W.W.W.W.E.h.9.Q.W.W.W.^.} ,XeXuXwXwXtX2Xb ].E. .$ ",
"H j.W.(..XE.j.E.b.g.v.b.Q.b.k.9.w.w.9.v.E.^.{ 4XwXqXqXqXqX9XqXpXb ^. .% ",
"H l.W.(..X).W.W.E.9.9.9.w.w.9.7.9.7.9.9.w.t.H.rX9XqXqXqXqXqX9X0X2Xo...+ ",
"H d.W.(..XoX(.W.b.9.9.9.7.9.7.9.9.9.9.9.w.R iXqXqXqXqXqXqXqXqXqXuX[ _ % ",
"a d.W.(..X.X(.W.E.9.9.9.9.9.9.9.7.9.9.7.q.z uX9XqXqX9XqXqXeX0XqXyX{ Y + ",
"y s.W.)..X).W.W.v.9.9.7.9.9.9.9.7.7.7.7.4.n uXqXqXqXqXqX0XA D wXyX{ R o ",
"5 f.(.XXXX(.W.W.k.9.9.9.9.7.9.9.7.7.7.7.q.z aX9XqXqXqXqXqX<X7XqXrXI P + ",
"= -.E.XX.X).W.Q.h.9.9.9.9.9.9.7.7.7.e.7.7.! 7X9XqXqXqXqXqXqXwXqX6X_ f o ",
"% %.v.(.).(.W.v.9.7.9.9.9.7.9.7.7.7.7.7.w.y.A.rXqXqXqXqXwX0XqX0XS i.p   ",
"  Y c.W.W.W.E.h.9.9.9.9.9.9.9.7.7.7.7.7.9.8.( J.eX9X9X9XqXqXuX,X..y.4   ",
"  i d.(.(.E.v.9.9.9.9.9.9.9.9.9.9.9.7.9.7.8.8.$.| 2X7X8X8X4XJ.X.n.$.=   ",
"  - $.$X).E.v.h.h.9.h.9.9.9.9.9.7.9.9.9.9.9.w.q.s. .R [ [ X.R.~.M.P %   ",
"  * l !.OXW.b.h.h.h.9.9.9.9.9.9.9.9.9.9.9.w.8.~ s.h.9.k.M.W.W.W.n.5     ",
"    = u.OX(.E.v.h.h.9.9.9.9.9.9.9.9.9.h.9.h.g.U a s.h.v.E.(.OXOXo.      ",
"      s [.XXW.E.k.h.9.9.9.9.9.9.9.9.9.9.h.9.9.y.4 k x.E.(.XXoX%X7       ",
"      O } @X).W.b.k.h.9.9.9.9.9.9.h.9.9.9.h.w.g.t.- g '.).@X3XL.        ",
"        $ {.oX).E.b.k.9.9.9.9.9.9.9.9.9.9.9.9.h.k.a.j j /.@X*X%         ",
"          , }..X).W.b.v.k.9.h.9.9.9.7.9.9.h.k.v.E.W.`.I.{.5X,           ",
"            ; {.+X).(.E.b.v.k.h.h.k.h.k.k.v.b.E.(.).oX@XP.>             ",
"              & S.&XU.T._.W.E.b.b.b.b.b.E.E.W.).XXoX%XZ.O               ",
"                * q 6 u [ U.).(.(.W.(.(.(.).XXoX&XD.q +                 ",
"                    ` *.L g } Y.U./. X X|.U.}.F.b &                     ",
"                    l 5.1.&.d 3 = & & & &                               ",
"                      L -.0.2.;.#.#.#.~ ;                               ",
"                        d ! ) 2.<.,.,.~ ; *                             ",
"                            U 1.<.<.6.Y h u                             ",
"                            >.6.6.,.<.G E -.4                           ",
"                            3.6.,.6.1.y l 2.~ :                         ",
"                            4.<.6.6.1.5 - _ ' =                         ",
"                          L 0.<.;.<.#.-     $                           ",
"                          ~ <.=.0 Q ;.y #                               ",
"                          %.,.~ $ / 2.) =                               ",
"                        d 3.2.a . i <.1.u <                             ",
"                        U <.-.3   = -.6.! O                             ",
"                        _ 2.L       W <.&.*                             ",
"                        d ~ =       4 $.) =                             ",
"                          o           6 e                               "
};
