/* XPM */
static char *_43d12004a05489081132a23c408e81aLOciNfxfydovvxUx[] = {
/* columns rows colors chars-per-pixel */
"64 64 171 2 ",
"   c None",
".  c #020202",
"X  c #0A0405",
"o  c #060508",
"O  c #0A050A",
"+  c #0A090B",
"@  c #110604",
"#  c #1E0706",
"$  c #170804",
"%  c #1A0904",
"&  c #15060A",
"*  c #190608",
"=  c #1D0B09",
"-  c #0D0C12",
";  c #100F13",
":  c #131314",
">  c #1C1415",
",  c #19191B",
"<  c #230606",
"1  c #220A06",
"2  c #330B04",
"3  c #3A0B05",
"4  c #340B09",
"5  c #3A0809",
"6  c #321204",
"7  c #3F1F0B",
"8  c #231110",
"9  c #1F1F22",
"0  c #202022",
"q  c #28292B",
"w  c #37373A",
"e  c #450D05",
"r  c #4A0C04",
"t  c #550E0B",
"y  c #451405",
"u  c #4E1403",
"i  c #401A06",
"p  c #4C1008",
"a  c #461A08",
"s  c #5E1704",
"d  c #620C02",
"f  c #690C07",
"g  c #7B0E03",
"h  c #631405",
"j  c #6B1209",
"k  c #601F0B",
"l  c #741008",
"z  c #690F13",
"x  c #751011",
"c  c #7B1313",
"v  c #532105",
"b  c #5C2207",
"n  c #762D06",
"m  c #792C03",
"M  c gray27",
"N  c #801005",
"B  c #8D1204",
"V  c #8E1A04",
"C  c #951304",
"Z  c #A31502",
"A  c #AC1303",
"S  c #A21E08",
"D  c #B01304",
"F  c #BE1903",
"G  c #BE190D",
"H  c #AE1E11",
"J  c #B71F18",
"K  c #8A2B07",
"L  c #8B2D09",
"P  c #982A08",
"I  c #823907",
"U  c #913607",
"Y  c #A32504",
"T  c #A32B06",
"R  c #BC2202",
"E  c #AC3202",
"W  c #AE3C05",
"Q  c #BB3306",
"!  c #BB3D04",
"~  c #BD3D08",
"^  c #CA1E04",
"/  c #CF190D",
"(  c #D31601",
")  c #D91604",
"_  c #DD1803",
"`  c #DE1808",
"'  c #C51F12",
"]  c #C31B1A",
"[  c #D01C12",
"{  c #DE1F15",
"}  c #DD1E1E",
"|  c #E51602",
" . c #E81702",
".. c #E71B05",
"X. c #ED1902",
"o. c #EC1E0B",
"O. c #F41A02",
"+. c #FD1B01",
"@. c #F41A08",
"#. c #E11F17",
"$. c #CD2404",
"%. c #DD2603",
"&. c #D62A02",
"*. c #DD2D06",
"=. c #DE3404",
"-. c #D62014",
";. c #E52805",
":. c #F52304",
">. c #FF2402",
",. c #F62B06",
"<. c #FF2A03",
"1. c #F72608",
"2. c #FC270A",
"3. c #FE290A",
"4. c #E73206",
"5. c #F53507",
"6. c #FF3302",
"7. c #FE3B02",
"8. c #FB330A",
"9. c #FD3609",
"0. c #FD350E",
"q. c #E22016",
"w. c #8E420A",
"e. c #B74003",
"r. c #CA4103",
"t. c #D14504",
"y. c #DF4507",
"u. c #DB4608",
"i. c #D75106",
"p. c #D45702",
"a. c #EB4205",
"s. c #EE4B07",
"d. c #EF4E07",
"f. c #F54204",
"g. c #FB4001",
"h. c #FD4101",
"j. c #FD4102",
"k. c #FF4002",
"l. c #FF4102",
"z. c #FF4103",
"x. c #FE4002",
"c. c #FD4303",
"v. c #FE4202",
"b. c #FF4203",
"n. c #FF4303",
"m. c #FF4302",
"M. c #FD4502",
"N. c #FF4403",
"B. c #FE4601",
"V. c #FF4204",
"C. c #FE4304",
"Z. c #FD4204",
"A. c #FF4303",
"S. c #F04B04",
"D. c #FE4E02",
"F. c #FF4A05",
"G. c #FD4D05",
"H. c #FE4B02",
"J. c #FD4309",
"K. c #FB4508",
"L. c #F94B09",
"P. c #E75908",
"I. c #F75606",
"U. c #F55003",
"Y. c #FF5000",
"T. c #FF5101",
"R. c #FF5103",
"E. c #FD5202",
"W. c #FA5707",
"Q. c #FF5000",
"!. c #F55508",
/* pixels */
"                                                                      :                                                         ",
"                                                                      .                                                         ",
"                                                                      . .                                                       ",
"                                                                      . I X                                                     ",
"                                                                      . W.y .                                                   ",
"                                          . . o                       . J.6.X .                                                 ",
"                                          o . .                     w . 9.6.s .                                                 ",
"                                            . 8 . .                 : . 6.6.5.@ o                                               ",
"                                            . 7.Y . o               . 1 6.<.6.,..                                               ",
"                                            . 7.6.V .               o n <.<.<.<.o ,                                             ",
"                                          o . 7.<.<.O .           , . d.<.9.<.<.u .                                             ",
"                                          . . 8.<.<.^ . o         + . 7.<.C.>.<.;.. 0                                           ",
"                                          . . <.<.>.<.r .         . . >.5.k.B.<.<.. .                                           ",
"                                          . v <.>.>.>.>..         o 2 >.C.N.E.g.>.$ .         9 .                               ",
"                                        . o !.<.>.>.>.+.. .       . e.>.k.k.T.k.>.B .         . . :                             ",
"                          .           . . I.+.>.>.<.>.>.@ .     + X 8.>.k.H.T.D.6.:.. .     q . o .                             ",
"                          . 9         . X >.>.>.6.k.>.>.e .     . U +.6.k.T.T.T.C.:.& .     o . 1 .                             ",
"                        . 7 . :     . . G.>.>.>.C.C.>.+.F .   . O 3.+.k.F.T.D.T.B.>.Z .     . . 1.. +                           ",
"                        . !.. .     . 6 3.>.>.<.N.C.+.+.... . . 7 +.>.C.T.T.T.T.C.>.... +   . b <.% .                           ",
"                        . 7.&..     . s.>.>.+.k.C.N.J.+.+.. . w.+.>.k.k.T.T.D.T.C.+.>.. . . X K.<.%..                           ",
"                      . X 6.6.3 .   . 6.>.+.k.k.B.k.B.7.@.i.J.+.>.C.C.G.T.D.T.T.k.>.+.o . . P.>.7.5.X                           ",
"                      . X 6.<.$.. . . 1.>.>.N.B.k.T.C.C.+.+.+.+.7.N.k.T.T.D.T.D.7.>.>.X . X :.<.k.7.. ,                         ",
"                      . a 7.<.,.X . = <.>.7.C.C.D.D.B.N.B.+.+.C.B.C.B.T.T.T.D.T.C.<.+.< o 0.7.k.k.k.2 .                         ",
"                      . m 7.<.8.X . L >.+.C.N.k.T.T.D.k.k.6.6.k.C.N.k.T.D.T.T.T.k.7.+.Q K.<.B.k.B.k.S .                         ",
"                      . W B.<.<.h . G.>.>.k.C.T.T.T.T.B.C.C.k.C.C.k.B.T.T.T.T.D.C.7.+.+.7.N.N.C.k.B.<..                         ",
"                      . r.k.k.<.:.o :.>.7.C.k.T.T.D.T.D.B.C.N.N.k.C.k.D.T.D.T.T.B.k.7.k.N.N.k.C.D.T.,.. o                       ",
"                      . r.B.k.6.<.p.<.>.C.k.B.T.T.D.T.T.N.N.C.B.k.k.B.k.T.T.T.G.N.C.C.C.N.N.C.B.D.T.6.. .                       ",
"                      . r.k.E.k.<.<.>.>.C.C.B.D.T.T.T.G.N.k.C.6.+.+.<.k.C.B.k.k.N.k.C.N.C.k.T.T.D.T.<.X .                       ",
"                      . ! k.D.B.6.<.>.>.C.k.N.N.k.k.N.C.C.k.C.+.+.+.+.+.7.B.N.N.N.C.C.N.k.B.T.D.T.T.6.< .                       ",
"                      . K k.T.T.k.6.<.<.7.B.k.C.C.B.C.N.C.7.+.>.>.<.+.+.+.+.+.+.+.>.+.C.N.D.T.T.T.D.6.g .                       ",
"                      . y k.T.T.T.k.6.>.>.C.C.k.k.k.N.7.<.<.>.<.>.<.+.>.>.>.>.>.>.>.+.k.N.H.T.T.T.D.7.R .                       ",
"                      . $ k.T.T.D.D.k.<.<.<.<.<.<.<.<.<.<.<.<.<.<.+.>.<.<.<.<.<.<.<.<.B.k.k.E.T.D.D.7.*..                       ",
"                      . o 7.T.T.D.T.H.>.>.<.<.<.<.<.<.<.<.<.>.<.<.<.<.3.<.<.<.<.<.<.<.<.C.C.C.G.T.D.7.4..                       ",
"                      + o 6.G.T.T.D.H.<.>.>.<.<.<.<.>.>.6.>.>.>.>.>.+.<.<.<.<.3.<.<.<.<.C.C.N.k.k.C.6.4..                       ",
"                        . Z.k.T.T.D.B.<.>.>.<.>.<.>.<.<.>.>.>.<.<.<.<.<.>.<.>.<.>.<.<.<.7.N.C.C.N.N.6.=..                       ",
"                        . a.7.k.B.k.7.<.<.>.<.<.>.>.>.>.>.>.>.>.>.6.>.<.<.<.<.>.<.<.>.<.<.N.C.N.N.k.7.Y .                       ",
"                        . P k.B.k.N.7.<.<.<.>.>.>.<.>.+.>.>.>.<.<.<.>.<.>.<.>.<.<.<.<.>.<.6.k.k.C.B.7.s .                       ",
"                        - X 7.7.C.k.7.6.6.<.<.<.<.<.<.<.<.>.>.<.>.<.<.>.<.>.<.<.<.>.>.<.<.6.k.B.C.k.7.X .                       ",
"                          . k.7.C.B.7.7.6.6.6.<.<.<.<.<.<.<.<.<.>.<.<.<.<.<.<.<.<.<.<.<.6.6.6.7.C.k.7.. .                       ",
"                          . L.k.7.k.k.6.6.6.6.6.6.<.<.<.<.<.<.<.<.<.<.<.<.<.<.<.<.6.6.6.6.6.7.7.k.7.k.. :                       ",
"                          . p N.k.k.B.7.7.6.6.6.6.6.6.6.<.<.<.<.>.<.6.<.6.6.<.6.6.6.6.6.7.7.7.7.k.k.p .                         ",
"                            . K.N.B.k.7.7.7.7.7.6.6.6.6.6.6.6.6.6.<.6.6.6.6.6.6.6.6.6.7.7.7.7.k.k.k.o                           ",
"                            . & B.N.B.k.k.k.7.7.7.6.6.7.6.6.6.6.6.6.6.6.6.6.7.7.7.7.7.7.7.k.k.k.N.T X                           ",
"                            + . L.N.N.N.k.k.7.7.6.7.6.6.6.7.7.7.7.6.7.7.6.7.6.7.7.7.7.k.7.C.B.B.f.o .                           ",
"                              o . G.B.H.H.k.B.k.k.B.7.7.7.7.7.7.7.7.7.7.k.k.7.7.k.k.k.C.C.B.B.F.. .                             ",
"                                X X D.H.H.B.H.N.B.k.B.B.k.B.B.k.B.B.N.B.B.B.B.B.B.B.B.B.H.H.y.X .                               ",
"                                  X 1 G.H.H.H.B.B.B.B.k.B.H.B.H.H.B.B.B.B.C.B.B.B.B.H.H.H.H.X X                                 ",
"                                    . X u.H.H.D.H.B.H.H.B.H.H.B.B.H.H.B.H.B.H.B.H.D.H.D.L . ;                                   ",
"                                      . . ! H.D.D.D.H.D.B.H.H.B.H.B.H.B.H.H.H.G.H.D.G.X . -                                     ",
"                                          . X a D.G.G.D.H.D.D.H.H.D.H.H.H.H.D.G.s X o +                                         ",
"                                            9 . . @ ~ S.G.E.D.H.D.G.D.D.s.E @ X o o M                                           ",
"                                                  X o X . . . . . . . . . . 4                                                   ",
"                                                  = +.+.+.+.+.O.+.+.:.+.+.+.O.G                                                 ",
"                                                o ` +.+.+.+.+.+.+.+.+.+.+.e +.#.+                                               ",
"                                                g +.O.* d +.+.+.+.+.+.+.o.# B +.-.                                              ",
"                                                +.+.] , C O.+.+.O.+.+.+.#.8   ..+.=                                             ",
"                                              o +.@.@   D O.O.O.+.O.O.O.{ 5   O O.O.+                                           ",
"                                              O X.j     D O.O.O.O.O.O.O.#.t     X *                                             ",
"                                                O       A O.O.O.O.O.O.O.-.z                                                     ",
"                                                        C  .X.O.X._  .O.-.x                                                     ",
"                                                        B  .X.X.l o X. .[ c                                                     ",
"                                                        f | | ' 4   ( | [ c                                                     ",
"                                                        r _ _ J X   f _ / c                                                     ",
"                                                        3 ) ) H o   @ ) / c                                                     "
};
