/* XPM */
static char *_efb91d85f114ad6a0d3589855eced91JciZ9xRfHaeu7PXa[] = {
/* columns rows colors chars-per-pixel */
"64 64 232 2 ",
"   c None",
".  c black",
"X  c #000100",
"o  c #000101",
"O  c #010101",
"+  c #010201",
"@  c #010102",
"#  c #000202",
"$  c #010202",
"%  c #010302",
"&  c #010303",
"*  c #020303",
"=  c #020403",
"-  c #030505",
";  c #030605",
":  c #010506",
">  c #010507",
",  c #040604",
"<  c #040605",
"1  c #040606",
"2  c #040706",
"3  c #050806",
"4  c #050907",
"5  c #010608",
"6  c #02080A",
"7  c #02090B",
"8  c #050908",
"9  c #050A08",
"0  c #060B09",
"q  c #060A0B",
"w  c #060C0A",
"e  c #070D0B",
"r  c #020B0D",
"t  c #070B0D",
"y  c #080C09",
"u  c #080F0C",
"i  c #08100C",
"p  c #0A100D",
"a  c #08110E",
"s  c #09110E",
"d  c #0B130F",
"f  c #0C130E",
"g  c #0A0F10",
"h  c #0A0F11",
"j  c #031013",
"k  c #051316",
"l  c #0B1310",
"z  c #0A1410",
"x  c #0D1510",
"c  c #0C1411",
"v  c #0C1612",
"b  c #0C1315",
"n  c #0D1416",
"m  c #0E1914",
"M  c #0F1A14",
"N  c #0E1B14",
"B  c #0F1B15",
"V  c #101915",
"C  c #111E19",
"Z  c #121F1A",
"A  c #111B1E",
"S  c #122018",
"D  c #132018",
"F  c #14241E",
"G  c #15251F",
"H  c #071A20",
"J  c #071A21",
"K  c #081B22",
"L  c #081C23",
"P  c #091E25",
"I  c #0A1F27",
"U  c #0C242D",
"Y  c #0D252F",
"T  c #1B2C25",
"R  c #1B2D25",
"E  c #1B282C",
"W  c #102B36",
"Q  c #21362C",
"!  c #233B32",
"~  c #243A31",
"^  c #233E37",
"/  c #243D34",
"(  c #243D36",
")  c #253D36",
"_  c #243D37",
"`  c #243E36",
"'  c #253E37",
"]  c #223339",
"[  c #233439",
"{  c #243E38",
"}  c #143441",
"|  c #163643",
" . c #163744",
".. c #193C4B",
"X. c #273B41",
"o. c #283C42",
"O. c #1D4555",
"+. c #1E4759",
"@. c #1F4859",
"#. c #2B4048",
"$. c #2E444B",
"%. c #204554",
"&. c #304850",
"*. c #314A51",
"=. c #334C55",
"-. c #365058",
";. c #224E60",
":. c #3F5D67",
">. c #295B70",
",. c #2B5F75",
"<. c #2E647D",
"1. c #2F667F",
"2. c #377693",
"3. c #387896",
"4. c #3E7D97",
"5. c #397A98",
"6. c #3B7D9C",
"7. c #547D8A",
"8. c #557F8C",
"9. c #3D81A0",
"0. c #3E83A2",
"q. c #598391",
"w. c #598492",
"e. c #5E8A99",
"r. c #4591B4",
"t. c #4A9ABE",
"y. c #4A9BBF",
"u. c #6A9DAE",
"i. c #4A9BC1",
"p. c #4B9CC1",
"a. c #4B9CC2",
"s. c #4B9DC2",
"d. c #4B9DC3",
"f. c #4C9EC4",
"g. c #4DA1C8",
"h. c #4EA2C9",
"j. c #4EA3CA",
"k. c #4EA3CB",
"l. c #4FA5CD",
"z. c #50A6CF",
"x. c #50A7CF",
"c. c #51A9D2",
"v. c #53ABD5",
"b. c #53ACD6",
"n. c #56B1DB",
"m. c #57B3DE",
"M. c #57B3DF",
"N. c #76B4C9",
"B. c #7CB7CA",
"V. c #7EBACD",
"C. c #58B6E2",
"Z. c #5AB8E5",
"A. c #5BBAE7",
"S. c #5CBCEA",
"D. c #5CBDEB",
"F. c #5DBFEE",
"G. c #5EC0EF",
"H. c #5FC2F1",
"J. c #5FC3F2",
"K. c #62C3EC",
"L. c #60C5F6",
"P. c #61C6F6",
"I. c #61C7F7",
"U. c #62C8F9",
"Y. c #62C9FA",
"T. c #63C9FA",
"R. c #63CAFA",
"E. c #64CBFA",
"W. c #65CCFA",
"Q. c #66CCFA",
"!. c #68CEFA",
"~. c #6AD0FA",
"^. c #6BD1FA",
"/. c #6CD1FA",
"(. c #6ED2FA",
"). c #72D4FA",
"_. c #7BD8FB",
"`. c #7DD9FB",
"'. c #7ED9FB",
"]. c #7FDAFB",
"[. c #81BED2",
"{. c #81BFD3",
"}. c #82C0D5",
"|. c #84C4D9",
" X c #87C8DD",
".X c #8DD0E6",
"XX c #8DD1E7",
"oX c #81DBFB",
"OX c #82DBFB",
"+X c #84DCFB",
"@X c #86DCFB",
"#X c #89DDFB",
"$X c #8DDFFB",
"%X c #96DEF5",
"&X c #96DEF6",
"*X c #97DFF7",
"=X c #90E0FB",
"-X c #93E1FC",
";X c #96E2FC",
":X c #97E2FC",
">X c #9AE3FC",
",X c #9BE4FC",
"<X c #9EE5FC",
"1X c #9FE5FC",
"2X c #A0E5FC",
"3X c #A1E6FC",
"4X c #A5E7FC",
"5X c #A8E7FB",
"6X c #AEE9FB",
"7X c #ABE8FC",
"8X c #B2E9FB",
"9X c #B8EAFB",
"0X c #C0EDFD",
"qX c #C8EEFA",
"wX c #C8EFFD",
"eX c #D0F2FC",
"rX c #D2F3FC",
"tX c #D8F2FC",
"yX c #DEF4FC",
"uX c #DFF6FD",
"iX c #DFF6FE",
"pX c #E1F6FD",
"aX c #E2F7FD",
"sX c #EAF8FD",
"dX c #ECF9FE",
"fX c #F7FDFF",
"gX c #F8FDFF",
"hX c #FAFDFF",
"jX c #FBFEFF",
"kX c #FCFEFF",
"lX c #FEFFFF",
"zX c white",
/* pixels */
"                                                                                                                                ",
"                                                                                                                                ",
"                                                                                                                                ",
"                                                                                                                                ",
"                                                                                                                                ",
"                                                                                                                                ",
"                                                                                                                                ",
"                                                                                                                                ",
"                                                                                                                                ",
"                                                                                                                                ",
"                                                                                                                                ",
"                                                                                                                                ",
"                                                                                                                                ",
"                                                                                                                                ",
"                                                                                                                                ",
"                                                                                                                                ",
"                                                                                                                                ",
"                                                                                                                                ",
"                                            ~ ! / / ^ ^ { / { { {                                                               ",
"                                        s . . . . . . . . . . . . . . . . . . . . . : T                                         ",
"                                      Z . . o.=.=.=.=.=.=.=.=.-.=.%... .| | | | | K . . R                                       ",
"                                      u . 2 B.,X,X,X,X,X;X,X;X,X>XQ.C.x.j.j.j.j.j.>.. . N                                       ",
"                                    x . E u.7X0XwX4X,X,X,X;X,X,X;XU.I.Z.j.j.j.j.j.s.| r + G                                     ",
"                                  0 . n [.,XiXgXfX4X,X,X-X$X].^.~.U.U.I.b.j.j.j.j.j.j.,.+ . v                                   ",
"                                T . . *.2X8XgXzXsX<X>X-X_.).E.E.E.E.J.W.J.x.k.k.k.h.k.s.j + + Q                                 ",
"                                3 . t  XeXzXzXpX2X-X`.E.E.E.J.E.E.J.E.W.E.A.c.k.h.k.h.j.5.. . s                                 ",
"                                . A w.,XeXgXgXiX>XOX^.U.J.E.J.W.J.J.E.J.E.J.G.k.k.h.k.h.y.K : +                                 ",
"                                . g *.*X6XpXzXdX>X+X/.U.E.E.W.J.E.E.J.W.J.J.G.k.h.k.h.k.0.. . 3                                 ",
"                                V . . 8.,X,XtXiX>X:X`.U.U.U.J.E.R.R.R.J.E.J.A.k.k.k.k.s.H . .                                   ",
"                                  . . [ XX,X9XqX,X>X#XU.E.E.E.E.R.R.R.R.E.J.m.k.k.k.s.<.. . l                                   ",
"                                    3 . $.}.>X,X>X>X>XE.E.E.E.J.J.R.R.R.J.m.l.k.k.f.W r .                                       ",
"                                      3 . b V.>X>X>X>X`.E.J.J.E.R.R.R.E.J.c.k.k.k.;.. . B                                       ",
"                                      V . . 7. X,X,X,X$XW.J.E.J.R.Y.R.R.J.x.k.k.r.L . +                                         ",
"                                        s . . o.-X,X,X,X!.W.J.E.Y.Y.R.J.C.l.k.2.P . 0                                           ",
"                                            . . -.*X,X;X^.W.R.U.Y.Y.Y.J.j.j.9.7 . e                                             ",
"                                            0 . n [.;X,X_.~.U.R.Y.Y.J.J.j.9.@.. . Z                                             ",
"                                              v . [ e.>X-X`.U.U.U.U.Z.b.s.U . . x                                               ",
"                                                : . g |.,X=XU.R.U.U.c.t.U . .                                                   ",
"                                                  . . :.-X-XJ.E.E.J.j.3.: . e                                                   ",
"                                                  v . . e.XX^.J.J.z.@.j . B                                                     ",
"                                                      . u o.].J.D.2.. . s                                                       ",
"                                                      : @ n N.J.j.Y . .                                                         ",
"                                                        2 . . 8.O.. 2 C                                                         ",
"                                                        x . . k r . D                                                           ",
"                                                            . . . s                                                             ",
"                                                              y f                                                               ",
"                                                                                                                                ",
"                                                                                                                                ",
"                                                                                                                                ",
"                                                                                                                                ",
"                                                                                                                                ",
"                                                                                                                                ",
"                                                                                                                                ",
"                                                                                                                                ",
"                                                                                                                                ",
"                                                                                                                                ",
"                                                                                                                                ",
"                                                                                                                                ",
"                                                                                                                                ",
"                                                                                                                                ",
"                                                                                                                                ",
"                                                                                                                                ",
"                                                                                                                                ",
"                                                                                                                                "
};
