/* XPM */
static char *_d030970b2a14fe282942074a0797209JY9qy0vw5IieNAiM[] = {
/* columns rows colors chars-per-pixel */
"38 64 215 2 ",
"   c None",
".  c #050404",
"X  c #0B0403",
"o  c #060904",
"O  c #0D0905",
"+  c #06020A",
"@  c #090409",
"#  c #0C0D0C",
"$  c #120404",
"%  c #1C0504",
"&  c #120A04",
"*  c #1B0905",
"=  c #1D0409",
"-  c #19140A",
";  c #240504",
":  c #2D0605",
">  c #230A04",
",  c #2B0B05",
"<  c #330704",
"1  c #340B04",
"2  c #3B0A05",
"3  c #3D0E08",
"4  c #201C0F",
"5  c #3C1206",
"6  c #3D1907",
"7  c #35130B",
"8  c #391409",
"9  c #3C1C12",
"0  c #420B06",
"q  c #4C0C06",
"w  c #490A08",
"e  c #5B0D05",
"r  c #5D0D0C",
"t  c #560E07",
"y  c #4C1306",
"u  c #41150C",
"i  c #4C1409",
"p  c #4B1A0B",
"a  c #471507",
"s  c #531406",
"d  c #5C1409",
"f  c #5A1B0B",
"g  c #561809",
"h  c #581810",
"j  c #660D0B",
"k  c #7B0E06",
"l  c #61130B",
"z  c #6C140C",
"x  c #631E0A",
"c  c #681A08",
"v  c #721D06",
"b  c #72170E",
"n  c #7C160C",
"m  c #761B0A",
"M  c #771205",
"N  c #690F10",
"B  c #691211",
"V  c #5B250A",
"C  c #403405",
"Z  c #6D240B",
"A  c #642709",
"S  c #7B2A0B",
"D  c #772707",
"F  c #6B370B",
"G  c #773810",
"H  c #773515",
"J  c #6A490A",
"K  c #73480D",
"L  c #7D5C0C",
"P  c #754410",
"I  c #746E07",
"U  c #8D1406",
"Y  c #8A1C0F",
"T  c #89140A",
"R  c #951807",
"E  c #8B1A13",
"W  c #821A13",
"Q  c #A51909",
"!  c #BC1A0B",
"~  c #B2170A",
"^  c #A51914",
"/  c #BD1E14",
"(  c #B61B12",
")  c #8C2B06",
"_  c #872809",
"`  c #912406",
"'  c #962D0B",
"]  c #932A06",
"[  c #8B320D",
"{  c #9D320B",
"}  c #94390C",
"|  c #97300D",
" . c #8C2D10",
".. c #963514",
"X. c #AB240A",
"o. c #AC2E0C",
"O. c #A52908",
"+. c #B7250B",
"@. c #A33207",
"#. c #A03108",
"$. c #AA350B",
"%. c #AA3C0C",
"&. c #B3340C",
"*. c #BC360E",
"=. c #B83B0B",
"-. c #AB3610",
";. c #CB1C0B",
":. c #C71B06",
">. c #DA1D06",
",. c #DB1C0A",
"<. c #D21C07",
"1. c #E31D05",
"2. c #EC1D05",
"3. c #E41E0A",
"4. c #EC1D0B",
"5. c #F51E06",
"6. c #FD1C02",
"7. c #F31E0B",
"8. c #FA1B09",
"9. c #FE1705",
"0. c #F01F11",
"q. c #CD2404",
"w. c #CC240A",
"e. c #C32D0B",
"r. c #CA2E09",
"t. c #D82609",
"y. c #C0340C",
"u. c #D5350D",
"i. c #DA340D",
"p. c #D53B0B",
"a. c #DB3B08",
"s. c #D72316",
"d. c #CA3A12",
"f. c #DC3E14",
"g. c #EB2406",
"h. c #EC230B",
"j. c #E52C0B",
"k. c #EA2C0A",
"l. c #E72809",
"z. c #F52305",
"x. c #FC2403",
"c. c #F52C06",
"v. c #FD2C02",
"b. c #F3210B",
"n. c #F92309",
"m. c #F52E0B",
"M. c #FA2B09",
"N. c #E2330B",
"B. c #ED310A",
"V. c #E63C0A",
"C. c #E93C0C",
"Z. c #F43406",
"A. c #FD3302",
"S. c #F63B05",
"D. c #FD3C03",
"F. c #F33409",
"G. c #FC3409",
"H. c #F33A09",
"J. c #FB3B09",
"K. c #EA2112",
"L. c #81590B",
"P. c #BC440A",
"I. c #87690C",
"U. c #947C0D",
"Y. c #8B6F15",
"T. c #8B7111",
"R. c #947911",
"E. c #C6450C",
"W. c #D5450D",
"Q. c #DB4109",
"!. c #DD4B0D",
"~. c #D44712",
"^. c #E4400A",
"/. c #EC430B",
"(. c #ED4C0B",
"). c #F54207",
"_. c #FD4203",
"`. c #FD4105",
"'. c #FD4302",
"]. c #FE4903",
"[. c #FE4C03",
"{. c #F6440A",
"}. c #F24C0A",
"|. c #F74805",
" X c #EF530A",
".X c #FE5102",
"XX c #FE5104",
"oX c #FE5102",
"OX c #92830C",
"+X c #998915",
"@X c #AE9810",
"#X c #AD9311",
"$X c #BDA90F",
"%X c #BEA412",
"&X c #C0A50E",
"*X c #CCB40F",
"=X c #D5BB0F",
"-X c #D2B912",
";X c #DAC40D",
":X c #DED30E",
">X c #DDC411",
",X c #D7C410",
"<X c #DCD515",
"1X c #FBCF07",
"2X c #FDD605",
"3X c #F5D50A",
"4X c #FBDC0B",
"5X c #F7DD09",
"6X c #EBD912",
"7X c #E6D919",
"8X c #F0D513",
"9X c #FCE405",
"0X c #FBE40B",
"qX c #F9EA09",
"wX c #FAE912",
/* pixels */
"                                                                            ",
"                                          &                                 ",
"                                          . .                               ",
"                                          O & O                             ",
"                                          O H 8 #                           ",
"                    .                     @ -.$.$                           ",
"                    . + O                 O *.Z.y O                         ",
"                    O 7 $ O               % p.G.+.&                         ",
"                    o ' _ O O           . , V.v.B.3                         ",
"                    o ) F.M @           O p F.M.Z.Y +                       ",
"                    . ] Z.B.: X         O D c.A.v.w.$                       ",
"                    . O.M.M.R .         . ] c.D.x.l.3 &                     ",
"                    o p.x.c.K.$         X e.v._.D.c.n @         4           ",
"                  . 8 Z.x.x.c.q .       1 j.A._.[.v.! o         O           ",
"                  . ..x.x.x.x.U +       A z.D.].[.S.h.= O     # . #         ",
"      o         . f F.8.v.v.6.:.$     + o.z._.[.XX].z.q O     O O +         ",
"    . . O       X d.v.x.A.S.6.>.%     , B.c._.[.XX].v.M @     & [ O         ",
"    & H $     . p c.x.x.D.D.z.4.1 + + | 8.D.].XXoX].v.R .   O 8 i.1 -       ",
"    > Q.s +   . ` n.6.G.D.D.v.7.0 o u B.v.J.XXXXoX].A.;.X O . S F.z &       ",
"    6 C.O.X   + *.n.x.D.`.].J.g.e V i.x._.].XXXXoX[.A.4.= . $ y.v.X.&       ",
"    V H.N.: . $ N.x.v.]._._.`.v.n.n.5.D.'.].oXXXoX[.D.n.< @ A m.D.i.$       ",
"    D J.v.l + 1 m.6.J._.].[.|.D.n.6.D.'.'.].oXoXoX[.D.x.e 8 C.J.|.H.<       ",
"  . ) S.c.O.X Z x.n._.'.].oX].'.G.v.'.'.'.[.oX[.oX[.J.6.+.f.J.D._.S.e o     ",
"  o ' `.v.t.; { x.G._.].oXoX[.D._._.'.'.'.[.oXoXoX[.`.6.x.G._.'._.'.Y .     ",
"  X @.'.D.k.d i.6.A.].oXoXoXoX'._._.D.'._.[.[.oXoX]._.v.D.D.'.'.|.].+.o     ",
"  o @._._.c.d.c.x.'.'.XXoXoXoX]._._.].A.D._.[.XXoX'._._.'.'.'.'.XX[.t.$     ",
"  . @.].|.Z.v.v.x.'.'.].[.oX[.'.'.'.S.9.x.D.D.|.]._.'.'.'.D.].[.XX[.N.:     ",
"  . { `.oX_.v.x.v.D._._.'.|.'.'._.v.6.9.6.6.v.A.D.D._.A.'.'.[.oXXXoXH.0     ",
"  . ) ].oX[.A.v.x.D.{.a.$.} } $.l.8.6.6.6.6.6.6.8.8.8.n.'.'.oXoXoXoXA.s     ",
"  . D ).oXoX].A.c.x.r.J &X>X>X@XF >.6.6.9.6.5.! k U w.x.D.D.[.oXoXoXA.l o   ",
"    A `.oXoXoX|.A.h.P 8X0X9X9X4X-XZ 6.6.6.6.U +X;X=XR.Q D._.].[.oX[.S.v X   ",
"    i ).[.oXoX[.v.X.#X2X9XqXqX9X3XJ g.6.6.>.L.wXwX0X4XP F.`.'.|.[.|.A.m O   ",
"    , V.].oXoX|.v.R $X2X9X<XC 5X3XJ z.6.6.:.U.:XI wX9XL l.D.'.D.].'.D.v .   ",
"    % p.].oX[.].M.+.T.1X5X0X6X4X%XW 6.6.6.l.F 7X:XqX6XG c.A.].'.'.D.D.c .   ",
"    $ -.D.'.'.A.v.c._ OX*X;X=XU.D g.x.x.x.n.<.F Y.I.A r.M.A.].D.'.D.D.s X   ",
"    @ S '.D.].A.v.G.k.+.` ) ` +.z.x.x.x.x.x.n.g.q.q.l.c.M.v.A.'.'.D.H.5     ",
"      y |.D.'.D.A.A.A.v.v.v.v.x.x.x.x.v.x.x.v.x.v.v.v.v.v.A.A.'.D.`.i.>     ",
"      > ^.D.D.D.A.A.A.A.v.A.v.v.v.v.v.v.v.v.v.v.v.v.v.A.A.A.A.D._._.&.O     ",
"      $ *.`.'.D.'.A.A.A.A.A.v.v.v.v.v.v.v.v.v.v.v.A.A.A.A.D.D.A.D.{.c #     ",
"      ; x |.'.'.D.D.D.A.A.A.A.A.A.A.A.v.A.v.A.A.A.A.A.A.A.D.D.D.).V.>       ",
"        % W.].'.'.D.D.A.D.i.Z.Z.A.A.A.A.A.A.A.A.A.A.D.A.D.'.D.'.`.' @       ",
"        X c }.].'.D.'.D.`.o.D N._.A.A.D.A.A.D.D.A.D.D.'.D.'.'.].~.*         ",
"          $ &.].].'.'.'.`.).&.0 v y.V.).`.).D._.D.D.D.D.'.D.|.}.g O         ",
"          - , ~.].].].].|.`._./.#.y < < 2 1 y V.D.'.].].].].(.Z .           ",
"            $ 3 !.[.[.{.].'.].].'.]./.Q.p.V.).|.].'.].|.].}.S $             ",
"              + 5 E.XX[.].].].].'.].].].].].].].].].].[.~.f @               ",
"                O > [  X[.].[.[.].].[.[.[.|.].].[.[.(.[ : @                 ",
"                    . 1 _ ~. XXXXX[.[.oX[.XX[.(.P.Z > .                     ",
"                        o & 5 Z [ $.=.%.#.S s : X X                         ",
"                          2 T e 2 : > ; : 2 t U Y                           ",
"                          U 5.7.4.4.1.1.l.g.5.,.s.B                         ",
"                        w >.3.k 1.8.6.6.8.6.4.j 3.;.,                       ",
"                        T 5.^ w 1.6.6.6.6.6.7.t R 0.W                       ",
"                        ! 0.q   1.9.6.6.6.6.b.l   ~ K.a                     ",
"                        ;.^   s 2.6.6.6.6.6.7.B   r ( f                     ",
"                        u 9   i 2.9.6.6.6.6.7.b                             ",
"                              i 1.6.6.1.2.6.7.b                             ",
"                              i 1.6.7.r Q 9.7.b                             ",
"                              s 1.6.K.u U 6.7.N                             ",
"                              p >.8.s.  z 2.7.j                             ",
"                                <.8./   q ,.8.B                             ",
"                                ;.b.E     ! h.B                             ",
"                                d n 9     h b 9                             ",
"                                                                            "
};
