/* XPM */
static char *eb2a014144c143cbc0bd25d516179a24SUxYN6dCp7yhlpfs[] = {
/* columns rows colors chars-per-pixel */
"64 64 120 2 ",
"   c #5E5628",
".  c #615726",
"X  c #655B26",
"o  c #61572A",
"O  c #665C2B",
"+  c #685E2D",
"@  c #655C32",
"#  c #6A5E31",
"$  c #6B5E3B",
"%  c #67602C",
"&  c #6B622E",
"*  c #71622D",
"=  c #71682F",
"-  c #676131",
";  c #6D6432",
":  c #6F6834",
">  c #66613B",
",  c #6E663A",
"<  c #6E693C",
"1  c #716734",
"2  c #756833",
"3  c #746933",
"4  c #706935",
"5  c #736934",
"6  c #726835",
"7  c #706837",
"8  c #736936",
"9  c #726837",
"0  c #716A36",
"q  c #746834",
"w  c #756935",
"e  c #746B34",
"r  c #746A35",
"t  c #746836",
"y  c #756937",
"u  c #756B36",
"i  c #746A37",
"p  c #766A36",
"a  c #736E37",
"s  c #756C35",
"d  c #766C37",
"f  c #726934",
"g  c #796935",
"h  c #7A6A37",
"j  c #74623A",
"k  c #716438",
"l  c #706538",
"z  c #726538",
"x  c #716638",
"c  c #736639",
"v  c #726739",
"b  c #72653B",
"n  c #72673A",
"m  c #74673A",
"M  c #74673B",
"N  c #70673C",
"B  c #72663C",
"V  c #73663C",
"C  c #716639",
"Z  c #78663E",
"A  c #716938",
"S  c #736938",
"D  c #726A39",
"F  c #70683A",
"G  c #71693A",
"H  c #71693B",
"J  c #73683A",
"K  c #736B3A",
"L  c #746838",
"P  c #756B38",
"I  c #746A39",
"U  c #766A38",
"Y  c #776B39",
"T  c #74693B",
"R  c #756B3A",
"E  c #776B3B",
"W  c #736C38",
"Q  c #776D38",
"!  c #766C39",
"~  c #766F38",
"^  c #776D3A",
"/  c #71683D",
"(  c #726A3C",
")  c #726B3D",
"_  c #71683F",
"`  c #726B3F",
"'  c #76693D",
"]  c #75683E",
"[  c #736A39",
"{  c #786E3B",
"}  c #796B3C",
"|  c #786B3E",
" . c #6E6440",
".. c #6F6541",
"X. c #726342",
"o. c #716741",
"O. c #716743",
"+. c #736643",
"@. c #756645",
"#. c #726940",
"$. c #716A40",
"%. c #726B41",
"&. c #706843",
"*. c #726842",
"=. c #726A43",
"-. c #746842",
";. c #746B42",
":. c #776B43",
">. c #716D40",
",. c #736C40",
"<. c #756C41",
"1. c #746D41",
"2. c #756C43",
"3. c #716944",
"4. c #746A44",
"5. c #776B45",
"6. c #746C47",
"7. c #786C46",
"8. c #776D49",
"9. c #797248",
/* pixels */
"> @  .6.6.8.X.o.9.< < : > < >.> X.@.7.:.:.$.B o.o.$.o.6.6.6.+.#.#.5.#.#.:.:.` ` $.$.3...o...X. .X.7.:.Z Z j Z v v Z L 8 S ; < &.",
"- - - , 9 V k k 9 8 a & = : : ; Z j } L L v 9 9 S v v k ; 9 v k 9 9 9 9 9 3 : ; , ; v , ; $ # # # j j 1 * * * k 1 ; = 3 3 8 S < ",
"; ; - ; ; k E i ; 3 ~ & & & 8 ; E # E 3 i 1 1 1 c i c c i c S 9 9 c i i 8 8 3 3 1 9 9 k ; j # # + 2 g g g 2 2 2 2 = * = 3 e : , ",
"; ; - ; ; ; 9 1 ; 3 3 3 e i a a 2 1 { i i 8 1 9 i i 3 1 1 1 9 : 9 9 3 i 8 3 = ; 1 1 9 # # @ + # k k 9 2 1 2 1 2 = 1 2 3 e e K ) ",
"- ; ; ; ; ; 9 ; ; 3 3 1 3 i i 3 9 1 L i a ; 3 8 i i 8 : 9 1 3 8 3 8 8 8 8 3 : = 3 i 9 ; # + # # j 1 9 1 1 c 2 2 3 = 3 3 e e e < ",
"; & ; ; ; 9 S 8 8 i i i a i h a 3 3 { i i 8 ; 8 i i 8 ; 9 3 : 8 8 8 8 3 3 e 3 : 1 1 9 # j # @ # ; k S S c i i i 3 : = 3 e 3 : ` ",
"O O # ; ; 9 L i 8 3 8 i i i 3 i 1 1 a 8 i 3 : 3 i 3 3 3 1 3 3 3 : 1 3 : : 3 3 : 1 i 9 ; # # O @ ; v 9 L i L P a 1 3 1 3 ; S : : ",
"X O + ; ; 9 S 8 8 ; 9 8 8 9 = = = 3 i 3 3 1 : 3 3 3 3 1 3 ; 3 ; = 1 3 = & 3 1 3 9 9 9 # j # O + # k 9 9 9 i L h 3 1 3 8 8 S : : ",
"O O + ; ; ; 9 8 1 ; 8 8 : 1 & = & = 3 1 3 & 3 3 e e 3 3 8 3 3 3 3 ; 3 ; : 3 : 8 8 8 ; ; ; # @ + ; v ; 9 9 3 i i 3 2 1 3 3 i 8 S ",
"O + + ; ; 9 9 1 3 1 ; 3 9 1 1 1 3 ; : 3 3 3 : e 8 : 3 e e 3 8 e 3 3 3 3 3 3 3 3 8 ; ; - # # # k , v S 9 9 3 c 2 3 1 2 3 3 i S ) ",
"+ + - ; ; ; 9 8 8 i 8 8 9 8 3 3 : 3 = e 3 3 : = 3 : e 3 3 3 e e 3 e e 3 e ; 3 8 9 ; ; ; # # # , 9 9 S S 8 8 i 2 2 2 1 1 8 i S < ",
"+ + + & ; ; 9 9 ; P 8 8 ; : 3 3 3 3 e e e e e 3 = = & : = = & = : = 3 : 3 ; ; ; 9 v ; # # # # # 9 9 S S S 8 i i 1 = 1 2 3 8 , ) ",
"+ + # ; & ; 9 8 9 a 8 8 3 3 8 8 3 : 3 e e e 3 : & = = & ; = = : = : : 3 3 & 3 8 9 9 ; # # # # ; ; 9 9 9 8 8 8 3 1 1 ; 3 3 8 ; ) ",
"# + & ; ; 9 L i 1 1 1 ; 9 ; ; 3 3 ; 3 ; : 3 3 3 a i e i 3 3 8 3 3 3 3 3 8 e 8 K L 9 ; , ; # # k 9 9 9 9 3 1 ; i 2 3 1 3 : 8 S , ",
"# - ; ; ; 9 i i i 8 8 8 8 8 3 3 3 8 3 8 3 3 8 3 3 8 3 3 3 8 8 3 3 3 3 3 3 8 e K L S 9 ; , ; , v 9 9 9 3 8 1 1 i c 3 1 3 8 8 : $.",
"+ + + ; ; 9 9 9 8 1 8 : 8 3 : 3 : 3 8 8 8 : 8 ; 3 3 ; 8 1 1 1 ; : ; ; ; ; 8 8 S S S ; ; # # # # ; 9 9 8 3 3 1 3 c 2 8 8 8 S S B ",
"+ + + ; ; ; 9 1 2 1 1 1 8 3 3 2 1 3 1 1 8 8 1 1 1 1 1 1 1 1 9 1 1 ; ; 1 ; 9 9 S 1 j j # # # O + & 9 1 9 1 3 3 9 c 2 c c 2 9 v B ",
"O + + ; ; ; ; ; 1 = 1 1 ; 1 = = = = 1 9 1 ; 9 ; 1 k ; k 9 1 ; 9 ; ; 9 ; 1 ; ; ; ; j # # # # @ @ + ; & & * = = 1 1 * * 2 1 1 ; , ",
". . O O O + O + + X & & & + % X + + + + # # O + + # + # + # # # & & # & + + + + + + O o O o O @ X X + X X X X O X X X O O O O @ ",
". . O O O O O O + + + % + + + + + + + + + O O O @ O + + O O + O O # + # # O O + O O O @ O O O + O + X X X X X X O X O O O o @ @ ",
". o O O O O O O + + + % + + + + + + + + @ + O O + O O @ + + + O # @ + # # O O O + @ + O O O @ + O X + X X X X O X O + + O % O @ ",
"+ + ; ; ; & & & & ; & & & 1 & ; & ; ; ; k # # @ # + # # # # - ; - ; 1 k ; & ; ; # ; k # ; - # # & & & & & * & ; 1 * & & & & ; , ",
"; 1 ; 9 1 9 9 1 ; ; ; ; ; ; ; ; 1 ; k ; 1 # ; # + + # ; # ; ; ; & 1 1 1 1 1 1 ; 1 1 k 9 ; 9 8 1 i 3 9 1 e 8 3 9 c 2 1 = 3 3 : B ",
"; 9 9 9 9 9 k 1 9 ; 9 ; 1 1 ; ; ; k 9 ; 1 ; ; + + + ; & ; 9 8 ; = 1 1 1 1 1 1 1 1 1 1 1 3 ; 9 9 c 3 1 8 3 3 8 v 9 2 1 3 : 8 : < ",
"9 9 9 9 S S S S ; ; S S ; S , 9 9 9 9 ; ; ; ; O O + 1 ; ; 3 8 ; 1 1 3 3 1 ; 8 8 8 8 1 8 3 ; 8 8 9 3 8 3 1 9 9 c 9 c 1 = 3 = : : ",
"9 9 S L 8 8 S 8 S S ; S 8 8 8 8 9 9 9 9 9 9 ; O o & 8 3 8 8 8 8 = 2 3 1 3 3 8 8 1 8 8 1 8 8 : 8 1 1 9 1 3 1 9 c 9 2 2 1 3 3 : ) ",
"9 3 9 9 8 8 8 3 8 ; S 8 8 8 1 9 1 1 1 9 9 ; ; O . & 8 ; 1 i 8 9 1 1 1 1 ; 8 ; 8 8 : 8 8 8 8 3 8 8 8 8 9 8 9 9 c k 1 2 2 3 : : ) ",
"1 1 1 1 ; 8 ; : 8 8 8 8 ; 3 8 3 8 9 9 9 S S ; O . O 8 3 1 8 8 8 = 1 3 = 3 8 ; 3 8 ; 3 ; ; 8 ; 8 8 ; 1 9 3 1 9 c c 2 1 = 3 3 8 , ",
"8 1 : ; 3 8 ; 3 8 8 8 3 : 8 9 1 1 8 S , 8 8 ; O o % 8 1 1 8 8 8 ; 3 3 : : ; 3 ; ; 3 ; 8 8 ; 8 ; 8 ; 8 8 9 1 8 V 9 9 3 : : 3 : : ",
"1 3 3 ; 3 ; 3 3 3 ; 3 & 3 ; = 1 1 1 S S S ; ; O O % 1 1 1 8 8 3 3 1 3 : 3 3 8 8 8 1 8 8 8 8 8 3 3 8 8 8 1 9 8 v 9 1 3 = = 3 : : ",
"3 3 3 3 3 : 3 ; 3 3 : 3 3 3 3 : 3 3 8 S S 9 ; O O + 1 1 1 8 i 8 : 3 3 3 3 1 8 8 8 8 3 1 3 : 1 8 9 8 1 8 1 2 9 9 9 2 3 3 : 3 : &.",
"3 ; : 3 : 3 1 3 3 : 1 3 ; 3 : 3 1 3 ; S S S ; O X & 1 1 1 i i 8 & 3 3 3 ; 9 8 : 8 8 ; 9 9 8 9 3 1 1 8 : 9 1 9 j 9 9 3 : 3 8 S : ",
": 3 3 1 1 3 3 1 : 3 ; 3 ; 3 3 1 1 1 9 S 9 9 # O . & ; 1 ; 8 8 8 3 3 & 3 = 3 8 8 1 8 1 ; 8 8 8 8 8 8 8 8 9 i 9 c c 3 3 3 3 3 : < ",
"1 8 ; 8 ; 8 ; 9 1 8 8 8 8 3 1 9 1 9 9 9 9 9 ; O o & 3 : 8 8 8 8 = ; 3 ; ; 8 ; 3 8 8 8 3 8 8 8 8 8 8 8 8 i i i V c i 3 3 3 3 < S ",
"8 3 S 8 8 8 8 : 3 ; ; 8 3 ; 9 1 1 1 9 8 9 9 ; O O & 3 ; ; 8 8 8 : 3 ; : 1 1 8 : : 1 ; 8 ; ; 3 ; 1 1 8 : 1 1 9 V c 2 2 3 3 3 e : ",
"S ; ; 8 8 8 S S S 8 S 8 S 8 9 9 8 8 9 9 9 9 ; O O & ; ; 3 8 S 8 3 3 3 3 3 1 9 8 8 8 8 ; 8 8 8 8 8 8 1 8 1 1 9 v c 3 1 = : 8 : < ",
"S , 8 8 S 8 v S 8 ; S S 9 9 9 9 9 9 S S i 9 & + O & 1 1 : 8 e : : 8 3 : 3 1 3 8 3 8 8 3 8 1 1 9 3 ; 9 1 8 3 9 v 9 9 3 3 3 = : : ",
"S 8 9 9 8 S 8 ; S S S S 9 9 v 8 S S S S V ; & O O & 1 & : e e 8 3 3 3 3 : 8 8 8 8 8 8 8 8 8 8 3 8 8 3 8 8 ; 8 V 9 8 3 e e 3 K < ",
"v S ; S 9 ; 8 S ; S S ; 9 9 9 9 9 v 9 9 9 1 + O + & & ; ; : a : & 3 3 ; 3 3 ; 8 3 ; 1 3 1 1 1 1 ; 3 3 : : 3 ; k 9 1 3 = = : : : ",
"; ; 8 ; 8 , ; ; v S ; ; 1 ; ; ; ; ; 9 ; 9 ; + O X % & & & ; : - & ; 3 = ; & ; ; 1 ; ; ; 1 ; ; ; ; ; ; ; ; ; ; 9 ; * & & = & ; , ",
"; , # @ + + + + + + + + X + + + + + % X % %   % X X X % % % % % % % % % % X % * X X X % + + + O X + + + + O + @ @ + + X + + X O ",
"o O O o O O + + + + X + + X + + + O % % X   X X X % % % X % % % % % X % X . % X X X X + O + O o X X + O X O O O O O O X X X O @ ",
"  o O @ O + # + % + % & + % & & + - & % % % % X % % & % % - % % % % % % % + % % + O + & + + O O O + + + + + + # @ + + + % % + @ ",
"@ @ # ; # 1 9 1 1 & ; & * & 1 & ; ; ; ; : - : - ; ; : & - - - = % & % % & & = 1 = ; * = ; 9 + + # ; 1 ; 1 = 9 ; k k * = = ; : ; ",
"O @ # ; ; k 9 ; & ; ; ; ; & ; ; ; ; ; ; : & ; : ; ; : & ; & & + ; & & & & & = 1 & = ; ; 9 ; ; + ; ; 9 1 ; ; ; , , ; & = = & ; ; ",
"@ @ ; ; k ' 8 1 8 : 3 3 8 9 8 8 S 8 e 8 a : : : 1 1 3 ; ; 1 1 ; : : 1 & & 3 3 a 3 1 8 8 S 9 ; - ; 9 i i 8 8 P S S e e e 3 3 e ` ",
"  @ # v v L 8 9 3 3 3 3 3 8 8 8 8 S i 8 8 8 e : 1 1 ; 1 3 ; 1 1 : ; : 1 3 3 3 3 3 1 8 8 9 ; + + & 1 9 i 8 8 9 8 S 8 e = 3 e 8 : ",
"o O # v v 8 1 1 3 ; : ; 3 ; 8 ; S ; 1 1 1 9 1 3 1 1 1 1 1 1 1 1 3 1 9 i 8 ; = : ; 1 1 ; ; ; O O + ; 1 1 3 1 ; 8 8 3 : = = 3 8 < ",
"@ # # V 8 L 3 & 3 3 & 3 3 = 1 1 9 9 ; 1 1 1 1 2 k 1 1 1 k 1 2 9 c i i g a & 3 3 3 ; 8 9 ; ; O O + ; 8 9 3 ; 8 ; 3 : : = = = : : ",
"# # + 9 ; ; ; & 3 : : 3 3 : 9 8 8 8 1 2 1 2 2 i 2 2 2 2 2 1 2 2 2 2 i i g : = 1 ; 8 8 ; 9 ; O O + ; i 9 8 8 : 3 3 3 = = = e : : ",
"@ O - 9 9 8 1 ; 1 3 3 3 3 ; 8 8 8 8 2 3 2 1 c 2 2 1 1 2 2 2 2 2 2 2 3 2 3 3 = : 3 8 P S 9 ; O O + ; 8 8 8 ; ; 3 : 3 = 3 = 3 8 : ",
"o O + c 8 i 3 = & e 3 : 3 3 3 3 8 8 2 3 2 2 2 2 1 2 1 1 1 * 1 = 1 1 = 1 1 3 3 3 3 8 P L L ; + O & 9 i 8 8 3 8 3 3 = = = = 8 8 < ",
"o O + S 9 L : & 3 = = 3 : 3 3 8 8 8 8 c 2 i 3 3 2 1 2 1 * 1 1 1 = 2 2 1 3 3 : : 3 e P K S ; O + # 9 i 8 8 1 9 1 : e e = 3 : : : ",
". o + 9 L P 8 3 : : 3 : 3 : : 3 8 8 1 3 1 1 1 3 1 * = 1 1 2 = 1 1 * 1 2 3 3 = 3 ; 8 P K S 8 - O & ; 8 8 8 3 8 3 3 e = = = e e ` ",
"O . + 9 8 8 3 & e = = 3 3 3 3 1 : 8 3 1 3 1 ; 3 * = 1 = * 1 3 1 3 1 1 2 3 & 3 = ; S P P L S + O + ; 9 9 9 1 8 8 3 : 3 3 3 9 : < ",
"O O + 9 9 3 ; 3 e 3 3 : = 3 ; 3 8 8 3 3 3 3 3 : 1 1 1 1 1 3 1 3 3 3 3 1 3 : = ; 3 8 P P S S O O + ; 9 1 1 1 1 1 3 = = 3 & 9 : , ",
"O O + 8 c a 3 3 e e 3 3 e 3 8 3 i i e e K : : e : e e : : : : 3 3 : e : : e : : 1 8 i P ^ S + O + ; 1 1 8 1 9 9 ; 3 ; 3 : ; : , ",
". O & i i P 8 1 e 3 8 8 8 a i a P P P e e a e e e e ~ : : = : : : : : 8 e e 3 3 1 8 P L L S O & - ; 1 9 1 1 i 8 8 3 3 3 3 8 ) ) ",
". O + ; 1 9 1 1 8 : 8 : 1 9 3 9 9 ; 1 8 K 8 8 8 e : 3 ; 3 : 1 1 : 3 ; ; ; ; : 3 9 9 S ; 8 ; # o O & 9 9 8 8 S S 8 8 8 3 8 S S , ",
"O O + 9 1 8 9 9 S S 8 8 8 9 9 9 9 9 1 1 : 8 : 1 8 : ; 3 1 : 1 1 3 ; ; 3 8 ; 8 8 9 v S 9 ; ; & O + ; 9 S S S 9 9 : 8 3 : 3 S S , ",
"O O + 9 9 v 9 9 9 9 9 v 8 S S 9 8 9 1 9 1 1 9 3 ; ; 1 8 1 1 1 1 1 1 1 1 ; ; S S 9 9 9 9 9 ; + O O # 9 i 9 9 S 9 8 3 3 3 ; 8 : , ",
"O O + 1 ; 9 9 9 9 9 9 9 9 ; S ; ; 9 1 1 1 1 1 1 : 9 1 ; 1 1 1 1 ; 1 1 1 3 ; S S 9 9 9 ; 1 ; + O + ; 9 9 9 9 9 9 : : 3 3 3 8 S < ",
"O O + ; ; ; - ; ; ; ; ; ; ; - ; & & 1 & & ; & & & & & & & & & * & & & & & ; ; 8 ; ; ; # + + + O O + + ; ; & ; ; ; - & * & & - , ",
"O O O O + + + + + + + + + + + + + + + O + X X X + X O O + + + % + & % + + O ; - + + + + + O O . o O + O O O + O O + X X + O o @ "
};
